<svg width="76" height="14" viewBox="0 0 76 14" fill="none" xmlns="http://www.w3.org/2000/svg">
<path fill-rule="evenodd" clip-rule="evenodd" d="M36.5101 10.2304C36.4209 10.3008 36.323 10.3661 36.2161 10.426C35.5649 10.8005 34.6073 10.9789 33.3335 10.9789C32.6917 10.9789 32.1267 10.9132 31.6382 10.7818C31.1499 10.6509 30.7476 10.4725 30.4122 10.2385C30.0866 10.0136 29.8377 9.74173 29.6653 9.43245C29.5217 9.16056 29.4355 8.87957 29.4163 8.57029C29.4163 8.53912 29.4291 8.50795 29.4499 8.48398C29.4609 8.47103 29.4742 8.46048 29.4889 8.45233C29.5048 8.4437 29.5224 8.4389 29.5408 8.4389H31.7149C31.7724 8.4389 31.8298 8.48589 31.8393 8.542C31.8489 8.62639 31.8775 8.70119 31.9065 8.77648C31.9542 8.87957 32.0309 8.97308 32.1363 9.05747C32.2512 9.14186 32.395 9.19797 32.5959 9.24496C32.6686 9.26318 32.7514 9.27804 32.8428 9.29003C32.8877 9.29579 32.9347 9.30058 32.9837 9.3049C33.0631 9.31161 33.1476 9.31641 33.2368 9.31832L33.3527 9.31976C33.6207 9.31976 33.8314 9.30106 33.9943 9.27325C34.157 9.24496 34.2912 9.19797 34.3772 9.15097C34.473 9.10446 34.5306 9.04836 34.5688 8.98267L34.5798 8.95965L34.5855 8.94622L34.5977 8.91314C34.6097 8.87622 34.6168 8.83881 34.6168 8.80429C34.6168 8.76401 34.6131 8.73092 34.6038 8.6988L34.596 8.6753C34.5911 8.66235 34.5852 8.64893 34.5784 8.6355C34.5497 8.58899 34.5115 8.542 34.4443 8.49501C34.4145 8.47535 34.377 8.45569 34.3341 8.43603C34.2947 8.41828 34.251 8.40054 34.205 8.3828C34.0996 8.35451 33.9752 8.31711 33.8314 8.28882L31.782 7.90473C31.3702 7.82993 31.0252 7.71724 30.7476 7.58586C30.4698 7.45495 30.24 7.29527 30.0771 7.10778C29.9049 6.92989 29.79 6.7237 29.7133 6.49881C29.6366 6.27392 29.6079 6.03944 29.6079 5.77714C29.6079 5.70042 29.6133 5.62322 29.6234 5.5465C29.629 5.50191 29.6364 5.45731 29.6452 5.41272C29.6562 5.35614 29.6694 5.29955 29.6846 5.24297C29.7094 5.15043 29.7422 5.06028 29.7841 4.97253C29.8225 4.89197 29.8688 4.81333 29.924 4.73661C30.0389 4.57741 30.1824 4.42732 30.3645 4.29642C30.5465 4.16503 30.7763 4.04324 31.0446 3.94973C31.3126 3.84664 31.6286 3.77136 31.9927 3.71525C32.3565 3.65915 32.7779 3.63086 33.2473 3.63086C33.37 3.63086 33.4899 3.63326 33.6065 3.63805C33.8397 3.64716 34.0607 3.66538 34.2684 3.69224C34.3748 3.70614 34.4777 3.72197 34.5771 3.74019C34.7011 3.7632 34.8197 3.7891 34.9329 3.81835C35.402 3.94014 35.7947 4.11804 36.1012 4.33382C36.4077 4.55871 36.6375 4.81189 36.7906 5.11159C36.9249 5.36477 37.0013 5.64576 37.0302 5.92723C37.0398 6.00203 36.9822 6.05814 36.9058 6.05814H34.8944C34.8802 6.05814 34.8667 6.05622 34.8542 6.0519C34.839 6.04711 34.8251 6.03896 34.8135 6.02889C34.7962 6.01402 34.7839 5.99484 34.7795 5.97374C34.7508 5.88983 34.7222 5.81455 34.6837 5.74885C34.6264 5.65535 34.5497 5.57096 34.4348 5.50526C34.3199 5.43957 34.1763 5.38347 33.9847 5.34607C33.8752 5.32353 33.7451 5.30818 33.5984 5.29907C33.5011 5.29284 33.3963 5.28996 33.2855 5.28996C33.0653 5.28996 32.8832 5.30866 32.7397 5.33648C32.6841 5.3475 32.6343 5.35997 32.589 5.3734C32.5302 5.39114 32.4793 5.41128 32.4339 5.43382L32.4045 5.44916C32.3639 5.47409 32.3283 5.49903 32.2999 5.52684C32.2749 5.5513 32.2551 5.57767 32.2416 5.60836L32.2254 5.64288C32.2191 5.65727 32.2134 5.67165 32.2088 5.68604C32.1992 5.71625 32.1936 5.74694 32.1936 5.77714C32.1936 5.84284 32.2034 5.89894 32.2321 5.94593C32.2607 6.00203 32.2992 6.04903 32.3661 6.09602C32.4332 6.14253 32.5194 6.17993 32.6248 6.21781C32.7301 6.25522 32.8737 6.28303 33.0366 6.31132L34.6837 6.61149C34.8591 6.6465 35.0238 6.68246 35.1783 6.72082C35.4373 6.78459 35.6676 6.85364 35.8714 6.92989C36.1875 7.05168 36.4459 7.20177 36.6471 7.37056C36.8387 7.53934 36.9822 7.73594 37.0685 7.96083C37.1451 8.20442 37.1929 8.4576 37.1929 8.7386C37.1929 8.97931 37.1601 9.20036 37.0947 9.40128C37.029 9.60315 36.9305 9.78537 36.799 9.94744C36.7456 10.0131 36.687 10.0755 36.6226 10.1344C36.5868 10.1675 36.5493 10.1997 36.5101 10.2304ZM19.7815 10.6514L22.8461 3.89363C22.8549 3.87205 22.8704 3.85431 22.889 3.84136C22.9101 3.82698 22.9355 3.81883 22.961 3.81883H26.045C26.0928 3.81883 26.1408 3.84712 26.1599 3.89363L29.2245 10.6514C29.263 10.7358 29.2054 10.8201 29.1096 10.8201H26.7729C26.7249 10.8201 26.6771 10.7919 26.658 10.7449L26.2366 9.69522C26.2175 9.64823 26.1695 9.62041 26.1217 9.62041H22.8846C22.8366 9.62041 22.7888 9.64823 22.7694 9.69522L22.3483 10.7449C22.3289 10.7919 22.2812 10.8201 22.2331 10.8201H19.8964C19.8006 10.8201 19.7433 10.7358 19.7815 10.6514ZM25.3649 7.96131C25.4511 7.96131 25.5087 7.87692 25.4798 7.79252L24.6179 5.63713C24.5988 5.59014 24.551 5.56184 24.503 5.56184C24.4552 5.56184 24.4072 5.59014 24.3881 5.63713L23.5262 7.79252C23.5145 7.82369 23.5174 7.85822 23.5309 7.88747C23.55 7.92918 23.5907 7.96131 23.6411 7.96131H25.3649ZM38.1028 3.94973V10.6979C38.1028 10.7727 38.1602 10.8197 38.2273 10.8293H40.5163C40.5834 10.8293 40.6407 10.7727 40.6407 10.7075V3.94973C40.6407 3.92048 40.6294 3.89315 40.6108 3.87205C40.5878 3.8452 40.5535 3.82794 40.5163 3.82794H38.2273C38.1602 3.82794 38.1028 3.88404 38.1028 3.94973ZM41.3683 10.6514L44.433 3.89363C44.4523 3.84712 44.5001 3.81883 44.5479 3.81883H47.6318C47.6796 3.81883 47.7276 3.84712 47.7467 3.89363L50.8114 10.6514C50.8501 10.7358 50.7922 10.8201 50.6965 10.8201H48.3597C48.3394 10.8201 48.3193 10.8149 48.3012 10.8058C48.2764 10.7928 48.2558 10.7722 48.2448 10.7449L47.8234 9.69522C47.821 9.68898 47.818 9.68323 47.8146 9.67796L47.8055 9.66597L47.7977 9.65686C47.7742 9.63336 47.7413 9.62041 47.7085 9.62041H44.4714C44.4628 9.62041 44.4543 9.62137 44.4459 9.62281L44.432 9.62665C44.4136 9.6324 44.3965 9.64247 44.3825 9.65638C44.3717 9.66741 44.3626 9.68035 44.3565 9.69522L43.9351 10.7449C43.916 10.7919 43.868 10.8201 43.8202 10.8201H41.4832C41.4538 10.8201 41.4266 10.8106 41.4051 10.7943C41.3637 10.7626 41.3431 10.707 41.3683 10.6514ZM46.9517 7.96131C47.038 7.96131 47.0955 7.87692 47.0669 7.79252L46.2048 5.63713C46.1856 5.59014 46.1379 5.56184 46.0898 5.56184C46.0646 5.56184 46.0391 5.56952 46.0181 5.5839C46.009 5.59014 46.0009 5.59733 45.9938 5.60596L45.9821 5.62226L45.9749 5.63713L45.1131 7.79252C45.0842 7.86781 45.1417 7.96131 45.228 7.96131H46.9517ZM59.3731 7.55804C59.5172 7.25835 59.5936 6.90207 59.5936 6.5084H59.6034V6.07732C59.6034 5.8812 59.5789 5.69419 59.5297 5.51773C59.492 5.38203 59.4398 5.25304 59.3731 5.13077C59.2203 4.84929 59.0096 4.61529 58.732 4.41821C58.4539 4.23073 58.1188 4.08112 57.7356 3.97802C57.3527 3.87493 56.9217 3.82794 56.4526 3.82794H51.6639C51.5966 3.82794 51.5395 3.88404 51.5395 3.94973V10.6979C51.5395 10.7636 51.5966 10.8197 51.6639 10.8197H53.9434C53.9803 10.8197 54.0146 10.8024 54.0377 10.776C54.0563 10.7545 54.0678 10.7271 54.0678 10.6979V9.05795C54.0678 8.99226 54.1249 8.93568 54.1923 8.93568H56.5579C57.008 8.93568 57.4201 8.87957 57.7932 8.77648C57.9872 8.72277 58.1658 8.6566 58.3302 8.57652C58.4821 8.5022 58.6222 8.41637 58.7511 8.31711C59.0191 8.11092 59.2298 7.85822 59.3731 7.55804ZM56.9504 5.91812C56.9984 6.01162 57.0175 6.12431 57.0175 6.25522V6.46141C57.0175 6.52038 57.0116 6.57553 57.0009 6.62732C56.9879 6.69061 56.9673 6.74767 56.9408 6.79898C56.9235 6.83302 56.9036 6.86563 56.8813 6.89632C56.8419 6.95003 56.7946 6.9975 56.7395 7.03346C56.6537 7.08956 56.5579 7.13655 56.443 7.16437C56.4099 7.17252 56.3769 7.17923 56.3436 7.18451C56.3105 7.18978 56.2772 7.19362 56.2433 7.19601C56.1929 7.20033 56.1414 7.20177 56.0883 7.20177H54.1923C54.1827 7.20177 54.1734 7.20081 54.1643 7.19841C54.1423 7.19314 54.1222 7.18211 54.1063 7.16676C54.0977 7.15861 54.0903 7.1495 54.0845 7.13943C54.0739 7.12217 54.0678 7.10155 54.0678 7.07997V5.68364C54.0678 5.61795 54.1249 5.56184 54.1923 5.56184H56.1365C56.2705 5.56184 56.3948 5.57143 56.5003 5.59014C56.6057 5.60884 56.7015 5.64624 56.7782 5.70234C56.8451 5.75844 56.9122 5.82414 56.9504 5.91812ZM58.9618 10.6514L62.0264 3.89363C62.0455 3.84712 62.0935 3.81883 62.1413 3.81883H65.2255C65.2515 3.81883 65.2775 3.82698 65.299 3.84232C65.3169 3.85527 65.3316 3.87253 65.3404 3.89363L68.4051 10.6514C68.4217 10.6878 68.42 10.7242 68.4053 10.754C68.3859 10.7928 68.3441 10.8201 68.2902 10.8201H65.9532C65.9054 10.8201 65.8571 10.7919 65.8383 10.7449L65.4166 9.69522C65.3978 9.64823 65.35 9.62041 65.3017 9.62041H62.0651C62.0169 9.62041 61.9693 9.64823 61.9502 9.69522L61.5286 10.7449C61.5097 10.7919 61.4615 10.8201 61.4137 10.8201H59.0767C58.9905 10.8201 58.9236 10.7358 58.9618 10.6514ZM62.8217 7.96131H64.5452C64.6314 7.96131 64.6892 7.87692 64.6601 7.79252L63.798 5.63713C63.7791 5.59014 63.7313 5.56184 63.6833 5.56184C63.6541 5.56184 63.625 5.57239 63.6022 5.59157C63.5878 5.60356 63.576 5.61891 63.5684 5.63713L62.7063 7.79252C62.694 7.82465 62.6974 7.86013 62.7121 7.88986C62.732 7.93062 62.7722 7.96131 62.8217 7.96131ZM72.4844 10.7075V8.44897C72.4844 8.43027 72.4886 8.41157 72.4942 8.39575C72.4972 8.3876 72.5006 8.37992 72.504 8.37369L75.7406 4.01543C75.7607 3.98618 75.7669 3.95357 75.7617 3.92336C75.7524 3.86678 75.7039 3.81883 75.6353 3.81883H73.069C73.0303 3.81883 72.9825 3.83753 72.9636 3.87493L71.3354 6.42448C71.2872 6.49929 71.1723 6.49929 71.1247 6.42448L69.4869 3.87493C69.4678 3.83753 69.4198 3.81883 69.3816 3.81883H66.8146C66.7092 3.81883 66.6521 3.93151 66.7092 4.01543L69.9274 8.37369L69.9333 8.39047C69.9407 8.41013 69.9466 8.42644 69.9466 8.44897V10.7075C69.9466 10.7732 70.0044 10.8293 70.071 10.8293H72.36C72.4271 10.8293 72.4844 10.7732 72.4844 10.7075Z" fill="#08131D"/>
<path d="M4.4964 1.80653L0.502724 8.57342C-0.924276 10.9821 0.857078 14 3.7015 14H11.6889C14.5333 14 16.3146 10.9821 14.8876 8.57342L10.894 1.80653C9.47653 -0.602176 5.92341 -0.602176 4.4964 1.80653Z" fill="#6059F4"/>
<path fill-rule="evenodd" clip-rule="evenodd" d="M2.6478 9.14572C2.11151 10.0549 2.42755 11.2172 3.35632 11.7423C4.28533 12.2669 5.46351 11.9576 6.00935 11.0484L9.59115 4.98454C10.1274 4.07539 9.8114 2.91305 8.88239 2.38847C7.95362 1.86341 6.76589 2.17269 6.2296 3.08184L2.6478 9.14572ZM13.0196 10.017C13.0196 11.187 12.0506 12.1355 10.8553 12.1355C9.65975 12.1355 8.6908 11.187 8.6908 10.017C8.6908 8.84747 9.65975 7.899 10.8553 7.899C12.0506 7.899 13.0196 8.84747 13.0196 10.017Z" fill="white"/>
</svg>
