<svg width="68" height="30" viewBox="0 0 68 30" fill="none" xmlns="http://www.w3.org/2000/svg">
<rect width="68" height="30" rx="15" fill="#615BF4"/>
<path fill-rule="evenodd" clip-rule="evenodd" d="M32.9891 16.8629C32.9284 16.911 32.8618 16.9555 32.7892 16.9963C32.3463 17.2517 31.6951 17.3733 30.829 17.3733C30.3925 17.3733 30.0083 17.3285 29.6762 17.2389C29.3441 17.1497 29.0706 17.028 28.8425 16.8685C28.6211 16.7152 28.4518 16.5298 28.3346 16.3189C28.2369 16.1335 28.1783 15.9419 28.1653 15.7311C28.1653 15.7098 28.174 15.6886 28.1881 15.6722C28.1956 15.6634 28.2046 15.6562 28.2146 15.6506C28.2254 15.6448 28.2374 15.6415 28.2499 15.6415H29.7283C29.7675 15.6415 29.8064 15.6735 29.8129 15.7118C29.8194 15.7693 29.8389 15.8203 29.8586 15.8717C29.8911 15.9419 29.9432 16.0057 30.0148 16.0632C30.093 16.1208 30.1908 16.159 30.3274 16.1911C30.3769 16.2035 30.4332 16.2136 30.4953 16.2218C30.5258 16.2257 30.5578 16.229 30.5911 16.2319C30.6451 16.2365 30.7026 16.2398 30.7632 16.2411L30.842 16.2421C31.0242 16.2421 31.1675 16.2293 31.2783 16.2104C31.3889 16.1911 31.4802 16.159 31.5387 16.127C31.6038 16.0953 31.643 16.057 31.669 16.0122L31.6765 15.9965L31.6803 15.9874L31.6886 15.9648C31.6968 15.9397 31.7016 15.9142 31.7016 15.8906C31.7016 15.8632 31.6991 15.8406 31.6928 15.8187L31.6875 15.8027C31.6841 15.7938 31.6801 15.7847 31.6755 15.7755C31.656 15.7438 31.63 15.7118 31.5843 15.6797C31.564 15.6663 31.5385 15.6529 31.5094 15.6395C31.4826 15.6274 31.4529 15.6153 31.4216 15.6032C31.3499 15.584 31.2653 15.5585 31.1675 15.5392L29.7739 15.2773C29.4939 15.2263 29.2593 15.1495 29.0706 15.0599C28.8817 14.9706 28.7254 14.8617 28.6146 14.7339C28.4975 14.6126 28.4194 14.472 28.3672 14.3187C28.3151 14.1654 28.2956 14.0055 28.2956 13.8267C28.2956 13.7743 28.2992 13.7217 28.3061 13.6694C28.3099 13.639 28.3149 13.6086 28.3209 13.5782C28.3284 13.5396 28.3374 13.501 28.3477 13.4624C28.3646 13.3993 28.3869 13.3379 28.4154 13.2781C28.4415 13.2231 28.473 13.1695 28.5105 13.1172C28.5886 13.0087 28.6862 12.9063 28.81 12.8171C28.9338 12.7275 29.0901 12.6444 29.2725 12.5807C29.4548 12.5104 29.6697 12.4591 29.9172 12.4208C30.1646 12.3826 30.4512 12.3633 30.7704 12.3633C30.8538 12.3633 30.9353 12.3649 31.0146 12.3682C31.1732 12.3744 31.3235 12.3868 31.4647 12.4051C31.537 12.4146 31.607 12.4254 31.6746 12.4378C31.7589 12.4535 31.8396 12.4712 31.9165 12.4911C32.2356 12.5742 32.5026 12.6955 32.711 12.8426C32.9194 12.9959 33.0757 13.1685 33.1798 13.3729C33.2711 13.5455 33.3231 13.7371 33.3428 13.929C33.3493 13.98 33.3101 14.0182 33.2581 14.0182H31.8904C31.8807 14.0182 31.8716 14.0169 31.8631 14.014C31.8527 14.0107 31.8432 14.0052 31.8354 13.9983C31.8236 13.9882 31.8152 13.9751 31.8122 13.9607C31.7928 13.9035 31.7733 13.8522 31.7471 13.8074C31.7081 13.7436 31.656 13.6861 31.5778 13.6413C31.4997 13.5965 31.4021 13.5582 31.2718 13.5327C31.1973 13.5174 31.1089 13.5069 31.0091 13.5007C30.9429 13.4964 30.8716 13.4945 30.7963 13.4945C30.6466 13.4945 30.5228 13.5072 30.4252 13.5262C30.3874 13.5337 30.3535 13.5422 30.3227 13.5514C30.2827 13.5635 30.2481 13.5772 30.2173 13.5926L30.1973 13.603C30.1696 13.62 30.1455 13.637 30.1261 13.656C30.1091 13.6727 30.0956 13.6907 30.0865 13.7116L30.0755 13.7351C30.0712 13.7449 30.0673 13.7547 30.0642 13.7645C30.0577 13.7851 30.0538 13.8061 30.0538 13.8267C30.0538 13.8714 30.0605 13.9097 30.08 13.9417C30.0995 13.98 30.1256 14.012 30.1711 14.0441C30.2168 14.0758 30.2754 14.1013 30.347 14.1271C30.4187 14.1526 30.5163 14.1716 30.6271 14.1909L31.7471 14.3955C31.8664 14.4194 31.9783 14.4439 32.0835 14.4701C32.2596 14.5136 32.4162 14.5606 32.5548 14.6126C32.7697 14.6957 32.9454 14.798 33.0822 14.9131C33.2125 15.0282 33.3101 15.1622 33.3687 15.3155C33.4209 15.4816 33.4534 15.6542 33.4534 15.8458C33.4534 16.01 33.4311 16.1607 33.3866 16.2977C33.3419 16.4353 33.275 16.5595 33.1855 16.67C33.1492 16.7148 33.1094 16.7573 33.0655 16.7975C33.0412 16.8201 33.0157 16.842 32.9891 16.8629ZM21.6136 17.15L23.6975 12.5424C23.7035 12.5277 23.714 12.5156 23.7267 12.5068C23.741 12.497 23.7584 12.4914 23.7757 12.4914H25.8728C25.9053 12.4914 25.9379 12.5107 25.9509 12.5424L28.0349 17.15C28.061 17.2075 28.0219 17.2651 27.9567 17.2651H26.3677C26.3351 17.2651 26.3026 17.2458 26.2896 17.2137L26.0031 16.4981C25.9901 16.466 25.9574 16.4471 25.9249 16.4471H23.7237C23.6911 16.4471 23.6586 16.466 23.6454 16.4981L23.359 17.2137C23.3459 17.2458 23.3134 17.2651 23.2807 17.2651H21.6917C21.6266 17.2651 21.5876 17.2075 21.6136 17.15ZM25.4103 15.3159C25.469 15.3159 25.5081 15.2583 25.4884 15.2008L24.9024 13.7312C24.8894 13.6992 24.8569 13.6799 24.8242 13.6799C24.7917 13.6799 24.7591 13.6992 24.7461 13.7312L24.16 15.2008C24.152 15.222 24.154 15.2456 24.1632 15.2655C24.1762 15.294 24.2038 15.3159 24.2382 15.3159H25.4103ZM34.0721 12.5807V17.1817C34.0721 17.2327 34.1111 17.2647 34.1567 17.2713H35.7132C35.7589 17.2713 35.7979 17.2327 35.7979 17.1882V12.5807C35.7979 12.5608 35.7902 12.5421 35.7775 12.5277C35.7619 12.5094 35.7386 12.4977 35.7132 12.4977H34.1567C34.1111 12.4977 34.0721 12.5359 34.0721 12.5807ZM36.2927 17.15L38.3766 12.5424C38.3898 12.5107 38.4222 12.4914 38.4547 12.4914H40.5518C40.5843 12.4914 40.617 12.5107 40.63 12.5424L42.7139 17.15C42.7402 17.2075 42.7009 17.2651 42.6358 17.2651H41.0468C41.033 17.2651 41.0193 17.2615 41.007 17.2553C40.9901 17.2464 40.9762 17.2324 40.9687 17.2137L40.6821 16.4981C40.6804 16.4938 40.6784 16.4899 40.6761 16.4863L40.67 16.4781L40.6646 16.4719C40.6486 16.4559 40.6263 16.4471 40.604 16.4471H38.4028C38.3969 16.4471 38.3911 16.4477 38.3854 16.4487L38.3759 16.4513C38.3634 16.4552 38.3518 16.4621 38.3423 16.4716C38.335 16.4791 38.3288 16.4879 38.3246 16.4981L38.0381 17.2137C38.0251 17.2458 37.9924 17.2651 37.9599 17.2651H36.3708C36.3508 17.2651 36.3323 17.2585 36.3176 17.2474C36.2895 17.2258 36.2755 17.1879 36.2927 17.15ZM40.0894 15.3159C40.148 15.3159 40.1872 15.2583 40.1677 15.2008L39.5814 13.7312C39.5684 13.6992 39.5359 13.6799 39.5033 13.6799C39.4861 13.6799 39.4688 13.6851 39.4545 13.6949C39.4483 13.6992 39.4428 13.7041 39.438 13.7099L39.43 13.7211L39.4252 13.7312L38.8391 15.2008C38.8194 15.2521 38.8586 15.3159 38.9172 15.3159H40.0894ZM48.5359 15.0409C48.6339 14.8366 48.6859 14.5937 48.6859 14.3252H48.6925V14.0313C48.6925 13.8976 48.6759 13.7701 48.6424 13.6498C48.6167 13.5573 48.5812 13.4693 48.5359 13.3859C48.432 13.194 48.2887 13.0345 48.0999 12.9001C47.9109 12.7723 47.683 12.6703 47.4224 12.6C47.162 12.5297 46.869 12.4977 46.5499 12.4977H43.2937C43.2478 12.4977 43.209 12.5359 43.209 12.5807V17.1817C43.209 17.2265 43.2478 17.2647 43.2937 17.2647H44.8437C44.8688 17.2647 44.8921 17.253 44.9078 17.235C44.9205 17.2203 44.9283 17.2016 44.9283 17.1817V16.0636C44.9283 16.0188 44.9671 15.9802 45.0129 15.9802H46.6216C46.9276 15.9802 47.2078 15.9419 47.4615 15.8717C47.5935 15.835 47.7149 15.7899 47.8267 15.7353C47.93 15.6846 48.0253 15.6261 48.1129 15.5585C48.2952 15.4179 48.4385 15.2456 48.5359 15.0409ZM46.8885 13.9228C46.9211 13.9865 46.9341 14.0634 46.9341 14.1526V14.2932C46.9341 14.3334 46.9301 14.371 46.9228 14.4063C46.9139 14.4495 46.9 14.4884 46.882 14.5234C46.8701 14.5466 46.8566 14.5688 46.8415 14.5897C46.8147 14.6263 46.7825 14.6587 46.745 14.6832C46.6867 14.7215 46.6216 14.7535 46.5434 14.7725C46.521 14.778 46.4985 14.7826 46.4758 14.7862C46.4533 14.7898 46.4307 14.7924 46.4077 14.7941C46.3733 14.797 46.3384 14.798 46.3022 14.798H45.0129C45.0064 14.798 45.0001 14.7973 44.9939 14.7957C44.9789 14.7921 44.9653 14.7846 44.9545 14.7741C44.9486 14.7686 44.9436 14.7624 44.9396 14.7555C44.9325 14.7437 44.9283 14.7297 44.9283 14.7149V13.7629C44.9283 13.7181 44.9671 13.6799 45.0129 13.6799H46.335C46.4262 13.6799 46.5106 13.6864 46.5824 13.6992C46.6541 13.7119 46.7192 13.7374 46.7713 13.7757C46.8168 13.8139 46.8625 13.8587 46.8885 13.9228ZM48.2562 17.15L50.3401 12.5424C50.3531 12.5107 50.3858 12.4914 50.4183 12.4914H52.5156C52.5332 12.4914 52.5509 12.497 52.5655 12.5075C52.5777 12.5163 52.5877 12.5281 52.5937 12.5424L54.6776 17.15C54.689 17.1748 54.6878 17.1997 54.6778 17.22C54.6646 17.2464 54.6361 17.2651 54.5995 17.2651H53.0103C52.9779 17.2651 52.945 17.2458 52.9322 17.2137L52.6455 16.4981C52.6327 16.466 52.6002 16.4471 52.5674 16.4471H50.3665C50.3337 16.4471 50.3013 16.466 50.2883 16.4981L50.0016 17.2137C49.9888 17.2458 49.956 17.2651 49.9235 17.2651H48.3343C48.2757 17.2651 48.2302 17.2075 48.2562 17.15ZM50.8809 15.3159H52.0529C52.1116 15.3159 52.1509 15.2583 52.131 15.2008L51.5448 13.7312C51.532 13.6992 51.4995 13.6799 51.4668 13.6799C51.447 13.6799 51.4272 13.6871 51.4117 13.7001C51.4019 13.7083 51.3939 13.7188 51.3887 13.7312L50.8025 15.2008C50.7941 15.2227 50.7965 15.2469 50.8064 15.2671C50.8199 15.2949 50.8473 15.3159 50.8809 15.3159ZM57.4516 17.1882V15.6484C57.4516 15.6356 57.4544 15.6229 57.4583 15.6121C57.4603 15.6065 57.4626 15.6013 57.4649 15.597L59.6658 12.6255C59.6795 12.6055 59.6837 12.5833 59.6802 12.5627C59.6738 12.5241 59.6408 12.4914 59.5942 12.4914H57.8491C57.8228 12.4914 57.7903 12.5042 57.7775 12.5297L56.6703 14.268C56.6375 14.319 56.5593 14.319 56.527 14.268L55.4133 12.5297C55.4003 12.5042 55.3677 12.4914 55.3417 12.4914H53.5961C53.5245 12.4914 53.4856 12.5683 53.5245 12.6255L55.7128 15.597L55.7168 15.6085C55.7218 15.6219 55.7258 15.633 55.7258 15.6484V17.1882C55.7258 17.233 55.7652 17.2713 55.8105 17.2713H57.367C57.4126 17.2713 57.4516 17.233 57.4516 17.1882Z" fill="white"/>
<path d="M11.2177 11.1184L8.50201 15.7322C7.53165 17.3745 8.74297 19.4322 10.6772 19.4322H16.1086C18.0428 19.4322 19.2541 17.3745 18.2837 15.7322L15.568 11.1184C14.6042 9.47614 12.1881 9.47614 11.2177 11.1184Z" fill="white"/>
<path fill-rule="evenodd" clip-rule="evenodd" d="M9.96269 16.1214C9.59801 16.7412 9.81292 17.5337 10.4445 17.8917C11.0762 18.2494 11.8774 18.0385 12.2485 17.4187L14.6842 13.2842C15.0488 12.6643 14.8339 11.8718 14.2022 11.5142C13.5706 11.1562 12.763 11.367 12.3983 11.9869L9.96269 16.1214ZM17.0155 16.7154C17.0155 17.5132 16.3566 18.1598 15.5438 18.1598C14.7308 18.1598 14.0719 17.5132 14.0719 16.7154C14.0719 15.918 14.7308 15.2713 15.5438 15.2713C16.3566 15.2713 17.0155 15.918 17.0155 16.7154Z" fill="#625DF4"/>
</svg>
