<svg width="74" height="27" viewBox="0 0 74 27" fill="none" xmlns="http://www.w3.org/2000/svg">
<path d="M12.7727 26.1174C19.8269 26.1174 25.5454 20.3827 25.5454 13.3087C25.5454 6.23464 19.8269 0.5 12.7727 0.5C5.71854 0.5 0 6.23464 0 13.3087C0 20.3827 5.71854 26.1174 12.7727 26.1174Z" fill="#E0BD70"/>
<path d="M10.1032 6.80922V26.5H15.4409L15.6315 6.80922C15.1869 6.42705 14.0303 5.66211 12.9626 5.66211C11.8956 5.66211 10.6119 6.42644 10.1032 6.80861V6.80922ZM3.61914 13.3097V22.1032C4.99229 25.7732 8.00415 26.1815 9.33859 25.7356V7.38308C7.05081 7.68881 5.97043 10.0595 5.71637 11.2066C4.49626 11.2066 3.81029 12.6085 3.61914 13.3097ZM22.1131 13.3097V22.1032C20.74 25.7732 17.7281 26.1815 16.3937 25.7356V7.38308C18.6815 7.68881 19.7618 10.0595 20.0159 11.2066C21.236 11.2066 21.922 12.6085 22.1131 13.3097Z" fill="#073F37"/>
<path d="M34.8422 12.2148C34.7745 12.0164 34.7039 11.819 34.6305 11.6227C34.5562 11.4243 34.4856 11.2245 34.4187 11.0234H32.2907C32.2229 11.2278 32.1521 11.4298 32.0789 11.63L31.8751 12.2148H30.9199C31.2472 11.2748 31.5925 10.3413 31.9555 9.41464C32.1207 9.00518 32.2834 8.61512 32.4437 8.24509C32.6046 7.87444 32.7697 7.50866 32.9397 7.14833H33.8072C34.1586 7.89232 34.4844 8.6482 34.7841 9.41464C34.9492 9.82411 35.1168 10.2578 35.2874 10.7158C35.4628 11.1744 35.6443 11.6743 35.8342 12.2148H34.8422ZM33.3541 8.12801C33.2203 8.44031 33.0917 8.75478 32.9682 9.0713C32.8272 9.44133 32.679 9.84352 32.5235 10.2772H34.1858C34.0405 9.87088 33.8899 9.46644 33.734 9.06402C33.613 8.74984 33.4859 8.43779 33.3541 8.12801ZM37.7966 11.5275C38.1275 11.5275 38.3676 11.4717 38.5188 11.3594C38.6695 11.2472 38.7445 11.0889 38.7445 10.8845C38.7445 10.7625 38.7178 10.6576 38.6646 10.5696C38.6162 10.4823 38.543 10.404 38.4456 10.3361C38.3406 10.2554 38.2255 10.189 38.1033 10.1383C37.9511 10.0688 37.7952 10.0078 37.6363 9.95574C37.4608 9.89265 37.2915 9.82411 37.1263 9.75071C36.9704 9.67586 36.8255 9.57993 36.6956 9.4656C36.5723 9.35101 36.471 9.21469 36.3968 9.06341C36.3242 8.90751 36.2879 8.72007 36.2879 8.50047C36.2879 8.04248 36.4452 7.68457 36.7616 7.42616C37.0773 7.16289 37.5074 7.03125 38.0518 7.03125C38.3676 7.03125 38.6471 7.06765 38.8902 7.14044C39.1383 7.20899 39.3324 7.28482 39.4734 7.36731L39.1891 8.11345C39.0172 8.01818 38.8333 7.94675 38.6422 7.90114C38.4443 7.85208 38.2412 7.82763 38.0373 7.82834C37.7893 7.82834 37.5951 7.8793 37.4542 7.98182C37.3181 8.08373 37.2497 8.2275 37.2497 8.41251C37.2497 8.52534 37.2715 8.6224 37.3157 8.70551C37.3641 8.78316 37.43 8.85413 37.5123 8.91782C37.6 8.98091 37.6998 9.03915 37.8111 9.09314C37.9278 9.14652 38.0543 9.19747 38.1904 9.24661C38.4287 9.33457 38.6398 9.42435 38.8249 9.51716C39.0143 9.60451 39.1721 9.71188 39.2986 9.83867C39.4298 9.9606 39.5296 10.1068 39.5974 10.2772C39.6657 10.4429 39.7002 10.6455 39.7002 10.8839C39.7002 11.3425 39.5369 11.6985 39.2115 11.9515C38.8909 12.2002 38.419 12.3246 37.7966 12.3246C37.6037 12.3259 37.4111 12.3113 37.2207 12.2809C37.0655 12.2596 36.9119 12.2278 36.761 12.1857C36.6451 12.1519 36.5309 12.1128 36.4186 12.0686C36.339 12.0335 36.2613 11.9944 36.1857 11.9515L36.4555 11.1987C36.5861 11.2715 36.764 11.3449 36.9878 11.4177C37.2116 11.4911 37.4808 11.5275 37.7966 11.5275ZM40.509 7.14833H41.4285V12.2148H40.509V7.14833ZM45.9919 12.2148C45.9243 12.0164 45.8537 11.819 45.7802 11.6227C45.7061 11.4243 45.6358 11.2245 45.5691 11.0234H43.4398C43.372 11.2278 43.3019 11.4298 43.2287 11.63L43.0248 12.2148H42.0691C42.259 11.6737 42.4387 11.1744 42.6093 10.7164C42.7786 10.2578 42.9444 9.82411 43.1053 9.41464C43.2698 9.00518 43.4331 8.61512 43.5934 8.24509C43.7537 7.87444 43.9189 7.50866 44.0895 7.14833H44.9569C45.3084 7.89232 45.6342 8.6482 45.9338 9.41464C46.099 9.82411 46.2666 10.2578 46.4365 10.7158C46.612 11.1744 46.7934 11.6743 46.9834 12.2148H45.9919ZM44.5044 8.12801C44.3707 8.44031 44.242 8.75478 44.1185 9.0713C43.977 9.44133 43.8288 9.84352 43.6733 10.2772H45.3356C45.1903 9.87087 45.0396 9.46643 44.8837 9.06402C44.7627 8.74984 44.6363 8.43779 44.5044 8.12801ZM49.3238 7.14833H50.2426V12.2148H49.3238V7.14833ZM54.8575 12.2148C54.6781 11.9143 54.4934 11.617 54.3034 11.3231C54.0996 11.0015 53.8878 10.68 53.6695 10.3579C53.4547 10.0371 53.2308 9.72258 52.998 9.41464C52.7748 9.10769 52.5613 8.83229 52.3568 8.58843V12.2148H51.4525V7.14833H52.2044C52.3986 7.35276 52.6078 7.59662 52.8311 7.8793C53.0549 8.15713 53.2787 8.44709 53.5025 8.74918C53.7306 9.05128 53.9495 9.3558 54.1582 9.66335C54.3724 9.96545 54.5617 10.2481 54.7269 10.5114V7.14833H55.6385V12.2148H54.8575ZM58.2934 12.2148C57.9176 11.3988 57.565 10.5722 57.236 9.73615C56.9032 8.8807 56.5896 8.01788 56.2954 7.14833H57.3092L57.6661 8.19352C57.7877 8.54961 57.9093 8.90023 58.0309 9.24661C58.1519 9.58753 58.2741 9.91935 58.3957 10.2409C58.5166 10.5624 58.6358 10.8578 58.7525 11.1253C59.0097 10.5065 59.248 9.88 59.4669 9.24661C59.594 8.90084 59.7174 8.549 59.839 8.19352C59.9606 7.83805 60.0773 7.48985 60.1892 7.14833H61.1734C60.8745 8.01714 60.5585 8.87991 60.2255 9.73615C59.901 10.573 59.5508 11.3996 59.1754 12.2148H58.2934ZM61.8267 12.2148V7.14833H65.0709V7.93086H62.7456V9.18049H64.8162V9.94846H62.7456V11.4329H65.2463V12.2154H61.8267V12.2148ZM67.3236 11.5275C67.6538 11.5275 67.8946 11.4717 68.0452 11.3594C68.1958 11.2472 68.2715 11.0889 68.2715 10.8845C68.2746 10.774 68.2468 10.6649 68.191 10.5696C68.1369 10.4761 68.0622 10.3962 67.9726 10.3361C67.8674 10.2555 67.7521 10.189 67.6296 10.1383C67.4777 10.0688 67.322 10.0078 67.1632 9.95574C66.9908 9.8933 66.8205 9.82492 66.6527 9.75071C66.497 9.67579 66.3523 9.57987 66.2226 9.4656C66.0992 9.35112 65.9979 9.21477 65.9238 9.06341C65.8506 8.90751 65.8143 8.72007 65.8143 8.50047C65.8143 8.04248 65.9722 7.68457 66.2885 7.42616C66.6043 7.16289 67.0344 7.03125 67.5788 7.03125C67.8946 7.03125 68.1741 7.06765 68.4172 7.14044C68.6652 7.20899 68.8594 7.28482 69.0004 7.36731L68.7161 8.11345C68.5442 8.0181 68.3603 7.94667 68.1692 7.90114C67.9713 7.85206 67.7682 7.82762 67.5643 7.82834C67.3163 7.82834 67.1221 7.8793 66.9812 7.98182C66.8451 8.08373 66.7767 8.2275 66.7767 8.41251C66.7767 8.52534 66.7985 8.6224 66.8426 8.70551C66.891 8.78316 66.9564 8.85413 67.0392 8.91782C67.127 8.98091 67.2262 9.03915 67.3381 9.09314C67.4548 9.14652 67.5812 9.19747 67.7174 9.24661C67.9557 9.33457 68.1668 9.42435 68.3513 9.51716C68.5412 9.60451 68.6991 9.71188 68.8256 9.83867C68.9568 9.9606 69.0566 10.1068 69.1244 10.2772C69.1927 10.4429 69.2266 10.6455 69.2266 10.8839C69.2266 11.3425 69.0639 11.6985 68.7378 11.9515C68.4172 12.2002 67.946 12.3246 67.3236 12.3246C67.1307 12.3259 66.9381 12.3113 66.7477 12.2809C66.4728 12.2427 66.2034 12.1714 65.9456 12.0686C65.8658 12.0335 65.7879 11.9944 65.7121 11.9515L65.9819 11.1987C66.1131 11.2715 66.291 11.3449 66.5142 11.4177C66.738 11.4911 67.0078 11.5275 67.3236 11.5275ZM73.5578 7.14833V7.94481H72.0044V12.2154H71.0788V7.94481H69.5254V7.14833H73.5578ZM33.0117 19.5124C32.7443 19.5124 32.4752 19.502 32.2029 19.4826C31.9618 19.4725 31.7223 19.4382 31.4879 19.3801V14.4599C31.595 14.4404 31.7093 14.4235 31.8309 14.4089C31.9519 14.3889 32.0765 14.3743 32.2029 14.3646C32.4455 14.3461 32.6886 14.3364 32.9319 14.3355C33.2379 14.3355 33.5223 14.3598 33.7848 14.4083C34.0473 14.4526 34.2736 14.5278 34.4629 14.6352C34.6571 14.7425 34.8077 14.8839 34.9148 15.0598C35.0218 15.2345 35.0751 15.4517 35.0751 15.7101C35.0751 15.9491 35.017 16.1535 34.9002 16.324C34.7817 16.5005 34.6182 16.6419 34.4266 16.7335C34.7327 16.8366 34.9589 16.987 35.1041 17.1872C35.2505 17.3874 35.3231 17.6403 35.3231 17.9473C35.3231 18.469 35.1337 18.8615 34.7545 19.1241C34.3752 19.3832 33.7945 19.5124 33.0123 19.5124H33.0117ZM32.3923 17.1726V18.7153C32.6081 18.734 32.8247 18.7437 33.0413 18.7444C33.2307 18.7444 33.4055 18.7323 33.5658 18.708C33.7316 18.6837 33.8725 18.6419 33.9892 18.5836C34.1102 18.5199 34.2052 18.4374 34.2736 18.3349C34.3461 18.2324 34.3824 18.1008 34.3824 17.9406C34.3824 17.6525 34.2784 17.4529 34.0691 17.3401C33.8604 17.2285 33.5706 17.1726 33.2017 17.1726H32.3923ZM32.3923 16.4483H33.0413C33.391 16.4483 33.6656 16.3998 33.8652 16.3028C34.0649 16.1996 34.1641 16.0195 34.1641 15.7611C34.1641 15.5178 34.0594 15.3443 33.8507 15.2424C33.6463 15.1393 33.3789 15.0889 33.0486 15.0889C32.9077 15.0889 32.7812 15.0913 32.6693 15.0962C32.5623 15.1011 32.4697 15.1083 32.3923 15.118V16.4483ZM39.6343 19.4535C39.5667 19.2551 39.4961 19.0577 39.4226 18.8615C39.35 18.6661 39.2792 18.4666 39.2109 18.2615H37.0816C37.0141 18.4647 36.9438 18.667 36.8704 18.8681L36.6666 19.4535H35.7108C36.0384 18.5137 36.3836 17.5801 36.7464 16.6534C36.9116 16.2439 37.0749 15.8539 37.2352 15.4832C37.3955 15.1132 37.5607 14.7474 37.7312 14.3865H38.5987C38.9502 15.1304 39.276 15.8863 39.5756 16.6528C39.7408 17.0628 39.9083 17.496 40.0783 17.9546C40.2537 18.4132 40.4358 18.913 40.6251 19.4535H39.6343ZM38.1462 15.3668C38.0124 15.6788 37.8838 15.9931 37.7603 16.3094C37.6193 16.6801 37.4711 17.0823 37.3151 17.516H38.9774C38.8321 17.1096 38.6814 16.7052 38.5255 16.3028C38.4045 15.9886 38.2781 15.6765 38.1462 15.3668ZM44.669 19.4535C44.4896 19.153 44.3049 18.8557 44.1149 18.5618C43.9104 18.2403 43.6993 17.9182 43.4803 17.5967C43.2657 17.2759 43.042 16.9613 42.8095 16.6534C42.5857 16.3464 42.3721 16.071 42.1683 15.8272V19.4535H41.2639V14.3865H42.0152C42.2094 14.5915 42.4181 14.8354 42.6419 15.118C42.8657 15.3959 43.0895 15.6858 43.3128 15.9879C43.5414 16.29 43.7604 16.5945 43.9691 16.9021C44.1826 17.2042 44.3726 17.4869 44.5377 17.7501V14.3865H45.4487V19.4535H44.669ZM49.6795 19.4535C49.3939 19.0152 49.072 18.6018 48.7171 18.2178C48.5374 18.0177 48.3499 17.8278 48.1557 17.6476C47.9749 17.4784 47.7825 17.3221 47.5798 17.1799V19.4535H46.661V14.3865H47.5798V16.4775C47.7401 16.3167 47.9077 16.1463 48.0825 15.9661C48.4256 15.6028 48.7635 15.2348 49.0963 14.862C49.2518 14.6861 49.3927 14.5284 49.5192 14.3865H50.6201C50.4598 14.5721 50.2892 14.7644 50.1096 14.9646C49.9299 15.1641 49.7448 15.3668 49.5555 15.5712C49.3661 15.7714 49.1744 15.9709 48.9796 16.1705C48.7902 16.3707 48.6027 16.5606 48.4182 16.7407C48.6221 16.8972 48.829 17.0798 49.0377 17.2891C49.2518 17.4942 49.4611 17.7156 49.6649 17.9546C49.8688 18.1887 50.0636 18.435 50.2481 18.6934C50.4374 18.9464 50.6104 19.2 50.7659 19.4535H49.6795Z" fill="#073F37"/>
</svg>
