<svg width="76" height="13" viewBox="0 0 76 13" fill="none" xmlns="http://www.w3.org/2000/svg">
<g id="logo / &#208;&#145;&#208;&#154;&#208;&#161; &#208;&#145;&#208;&#176;&#208;&#189;&#208;&#186; [bcs-bank]">
<path id="path" d="M21.5655 5.66423C21.898 5.80352 22.183 5.9428 22.468 6.22137C22.7055 6.45352 22.943 6.73209 23.038 7.05709C23.1805 7.38209 23.228 7.70709 23.228 8.07852C23.228 8.44994 23.133 8.77494 23.038 9.09994C22.848 9.42494 22.7055 9.65709 22.468 9.93566C22.2305 10.1678 21.898 10.3535 21.5655 10.4928C21.233 10.5857 20.853 10.6785 20.4255 10.6785H16.293V2.3678H22.6105V3.9928H18.0505V5.47852H20.4255C20.8055 5.47852 21.1855 5.52494 21.5655 5.66423ZM21.2805 7.28923C21.0905 7.10352 20.758 7.05709 20.378 7.05709H18.003V9.14637H20.378C20.758 9.14637 21.043 9.05352 21.2805 8.91423C21.518 8.77494 21.613 8.49637 21.613 8.17137C21.613 7.70709 21.4705 7.47494 21.2805 7.28923ZM26.5055 10.6321H24.843V2.3678H26.5055V5.84994L29.4505 2.3678H31.5405L28.168 6.36066L32.253 10.6785H30.068L26.5055 6.96423V10.6321ZM34.818 10.3999C34.248 10.2142 33.8205 9.8428 33.4405 9.47137C33.0605 9.09994 32.728 8.63566 32.4905 8.12494C32.3005 7.5678 32.158 7.05709 32.158 6.45352C32.158 5.89637 32.3005 5.2928 32.4905 4.78209C32.6805 4.22494 33.0605 3.80709 33.4405 3.43566C33.8205 3.06423 34.2955 2.73923 34.818 2.50709C35.3405 2.32137 35.9105 2.22852 36.5755 2.22852C37.0505 2.22852 37.5255 2.32137 37.953 2.41423C38.3805 2.59994 38.808 2.73923 39.188 3.0178C39.5205 3.24994 39.853 3.57494 40.138 3.94637C40.3755 4.3178 40.613 4.73566 40.708 5.15352H38.8555C38.7605 4.9678 38.6655 4.73566 38.523 4.59637C38.333 4.41066 38.1905 4.3178 37.953 4.17852C37.763 4.03923 37.5255 3.9928 37.3355 3.94637C37.1455 3.89994 36.8605 3.85352 36.623 3.85352C36.1955 3.85352 35.863 3.94637 35.5305 4.03923C35.198 4.13209 34.913 4.36423 34.6755 4.59637C34.438 4.82852 34.248 5.15352 34.1055 5.43209C33.963 5.75709 33.9155 6.08209 33.9155 6.45352C33.9155 6.82494 33.963 7.14994 34.1055 7.47494C34.248 7.79994 34.3905 8.03209 34.6755 8.31066C34.9605 8.58923 35.198 8.72852 35.5305 8.8678C35.8155 9.00709 36.1955 9.05352 36.623 9.05352C36.8605 9.05352 37.098 9.00709 37.3355 8.96066C37.5255 8.91423 37.763 8.77494 37.953 8.72852C38.143 8.58923 38.333 8.49637 38.523 8.31066C38.713 8.12494 38.7605 7.98566 38.8555 7.75352H40.708C40.5655 8.2178 40.423 8.58923 40.138 8.96066C39.9005 9.33209 39.568 9.61066 39.188 9.88923C38.808 10.1214 38.428 10.3535 37.953 10.4928C37.5255 10.6785 37.0505 10.6785 36.5755 10.6785C35.9105 10.7714 35.293 10.6785 34.818 10.3999ZM45.363 5.9428V3.24994H49.4005V2.41423H44.4605V10.5857H47.4055C49.0205 10.5857 50.208 9.79637 50.208 8.26423C50.208 6.68566 49.0205 5.89637 47.4055 5.89637L45.363 5.9428ZM49.3055 8.26423C49.3055 9.23923 48.6405 9.79637 47.4055 9.79637H45.363V6.73209H47.4055C48.6405 6.73209 49.3055 7.28923 49.3055 8.26423ZM50.6355 10.6321H51.5855L52.7255 8.12494H56.7155L57.903 10.6321H58.853L55.1005 2.46066H54.388L50.6355 10.6321ZM54.7205 3.6678L56.383 7.2428H53.1055L54.7205 3.6678ZM60.0405 10.6321H60.943V6.87137H65.8355V10.6321H66.738V2.41423H65.8355V5.98923H60.943V2.41423H60.0405V10.6321ZM74.6705 10.6321H76.0005L70.8705 6.31423L75.003 2.41423H73.768L69.9205 5.98923V2.41423H69.018V10.5857H69.9205V6.63923L74.6705 10.6321Z" fill="#006DF0"/>
<path id="path_2" d="M6.46 12.8141C10.0278 12.8141 12.92 9.98712 12.92 6.49983C12.92 3.01255 10.0278 0.185547 6.46 0.185547C2.89224 0.185547 0 3.01255 0 6.49983C0 9.98712 2.89224 12.8141 6.46 12.8141Z" fill="url(#paint0_linear_1985_8002)"/>
<path id="path_3" d="M6.46 12.8141C10.0278 12.8141 12.92 9.98712 12.92 6.49983C12.92 3.01255 10.0278 0.185547 6.46 0.185547C2.89224 0.185547 0 3.01255 0 6.49983C0 9.98712 2.89224 12.8141 6.46 12.8141Z" fill="url(#paint1_linear_1985_8002)"/>
<path id="path_4" d="M6.45965 0.232422C5.27215 0.232422 4.13215 0.557422 3.18215 1.11456C3.08715 1.16099 2.99215 1.25385 2.94465 1.30028C0.759646 3.20385 1.04465 6.63956 3.46715 8.96099C5.88965 11.2824 9.59465 11.6539 11.7796 9.75028C12.0171 9.56456 12.2546 9.28599 12.3971 9.05385C12.7296 8.26457 12.9196 7.42885 12.9196 6.54671C12.9196 3.01814 10.0221 0.232422 6.45965 0.232422Z" fill="url(#paint2_radial_1985_8002)"/>
<path id="path_5" d="M12.3501 6.31412C12.6351 5.89626 12.7301 5.38555 12.6826 4.87483C12.2076 3.2034 11.0676 1.81055 9.59514 0.974833C9.54764 0.928404 9.50014 0.928404 9.45264 0.881975C8.55014 0.41769 7.55264 0.185547 6.46014 0.185547C5.55764 0.185547 4.70264 0.371261 3.94264 0.696261C3.75264 0.881976 3.51514 1.06769 3.37264 1.29983C2.37514 2.78555 3.56264 5.1534 6.03264 6.49983C8.45514 7.93912 11.3051 7.79983 12.3501 6.31412Z" fill="url(#paint3_radial_1985_8002)"/>
</g>
<defs>
<linearGradient id="paint0_linear_1985_8002" x1="6.44285" y1="12.9399" x2="6.44285" y2="1.20976" gradientUnits="userSpaceOnUse">
<stop stop-color="#4581E9"/>
<stop offset="0.4792" stop-color="#80ACF0"/>
<stop offset="1" stop-color="white"/>
</linearGradient>
<linearGradient id="paint1_linear_1985_8002" x1="15.1103" y1="13.0421" x2="4.25178" y2="4.49051" gradientUnits="userSpaceOnUse">
<stop stop-color="#4581E9"/>
<stop offset="1" stop-color="#4581E9" stop-opacity="0"/>
</linearGradient>
<radialGradient id="paint2_radial_1985_8002" cx="0" cy="0" r="1" gradientUnits="userSpaceOnUse" gradientTransform="translate(13.8232 9.98761) rotate(-144.614) scale(15.6959 22.0708)">
<stop offset="0.0969745" stop-color="#4581E9"/>
<stop offset="0.4599" stop-color="#80ACF0"/>
<stop offset="0.7942" stop-color="#F0F6FD"/>
</radialGradient>
<radialGradient id="paint3_radial_1985_8002" cx="0" cy="0" r="1" gradientUnits="userSpaceOnUse" gradientTransform="translate(19.9439 2.10306) rotate(176.198) scale(14.0585 16.3878)">
<stop stop-color="#4581E9"/>
<stop offset="0.5368" stop-color="#87B1F0"/>
<stop offset="0.8057" stop-color="#CCE0FD"/>
<stop offset="1" stop-color="#F0F6FD"/>
</radialGradient>
</defs>
</svg>
