<svg width="58" height="11" viewBox="0 0 58 11" fill="none" xmlns="http://www.w3.org/2000/svg">
<g id="logo / &#208;&#157;&#208;&#161; &#208;&#145;&#208;&#176;&#208;&#189;&#208;&#186; [nsbank]">
<path id="path" d="M23.4277 0.177734H31.4688V2.09411H25.7191V4.23335H28.4802C29.6853 4.23335 30.6009 4.49581 31.2269 5.02068C31.8628 5.5456 32.1806 6.30324 32.1806 7.29363C32.1806 8.33353 31.8292 9.14071 31.1274 9.71509C30.4252 10.2896 29.4338 10.5768 28.1527 10.5768H23.4277V0.177734ZM28.0247 8.79408C28.6129 8.79408 29.0635 8.67523 29.3767 8.43755C29.6899 8.18992 29.8465 7.83338 29.8465 7.36791C29.8465 6.45676 29.2391 6.00118 28.0247 6.00118H25.7191V8.79408H28.0247ZM36.1693 2.46547C37.3554 2.46547 38.2664 2.76256 38.9019 3.35682C39.5379 3.94114 39.8556 4.82752 39.8556 6.01596V10.5767H37.7776V9.58133C37.3604 10.3241 36.5823 10.6956 35.4435 10.6956C34.8556 10.6956 34.3431 10.5915 33.9065 10.3835C33.4798 10.1756 33.1521 9.88836 32.9246 9.52193C32.6968 9.1555 32.5828 8.73952 32.5828 8.27404C32.5828 7.53128 32.8488 6.94696 33.3799 6.52108C33.921 6.09521 34.7512 5.88225 35.8706 5.88225H37.6355C37.6355 5.37717 37.4884 4.99089 37.1942 4.72355C36.9001 4.44622 36.4589 4.30757 35.8706 4.30757C35.4625 4.30757 35.0594 4.37692 34.6609 4.51556C34.2719 4.64431 33.9396 4.82255 33.6645 5.05038L32.8679 3.43109C33.285 3.12406 33.7834 2.88637 34.3622 2.71799C34.9505 2.54964 35.5528 2.46547 36.1693 2.46547ZM35.9986 9.13565C36.3781 9.13565 36.7149 9.04655 37.0091 8.86831C37.3032 8.68012 37.512 8.40776 37.6355 8.05123V7.23415H36.1125C35.2015 7.23415 34.7462 7.54615 34.7462 8.17007C34.7462 8.46716 34.8556 8.70485 35.0735 8.88313C35.3014 9.05152 35.6096 9.13565 35.9986 9.13565ZM40.9303 2.58414H43.1363V5.70383H46.4664V2.58414H48.6869V10.5765H46.4664V7.5905H43.1363V10.5765H40.9303V2.58414ZM53.3311 7.54597H52.1785V10.5765H49.9584V2.58414H52.1785V5.68895H53.3742L55.4518 2.58414H57.8141L55.139 6.41693L57.9993 10.5765H55.3806L53.3311 7.54597Z" fill="#008D5C"/>
<path id="path_2" d="M9.13699 0.178376V10.5774H6.83141V6.31382H2.30558V10.5774H0V0.178376H2.30558V4.27856H6.83141V0.178376H9.13699ZM15.4899 10.7555C14.4746 10.7555 13.5543 10.5278 12.7288 10.0722C11.9129 9.6067 11.2677 8.96795 10.7933 8.1558C10.3284 7.33379 10.0959 6.40776 10.0959 5.37777C10.0959 4.34777 10.3284 3.42672 10.7933 2.61461C11.2677 1.7926 11.9129 1.15381 12.7288 0.698236C13.5543 0.23276 14.4794 0 15.5041 0C16.3675 0 17.1455 0.158444 17.8381 0.475376C18.5403 0.792308 19.1286 1.24788 19.603 1.8421L18.1228 3.26828C17.4492 2.45617 16.6142 2.05009 15.6179 2.05009C15.0013 2.05009 14.4509 2.19371 13.9671 2.4809C13.4832 2.75823 13.1037 3.14943 12.8285 3.65451C12.5628 4.15963 12.43 4.73405 12.43 5.37777C12.43 6.02153 12.5628 6.59595 12.8285 7.10107C13.1037 7.60615 13.4832 8.00228 13.9671 8.28951C14.4509 8.5668 15.0013 8.70544 15.6179 8.70544C16.6142 8.70544 17.4492 8.29444 18.1228 7.47243L19.603 8.8986C19.1286 9.50272 18.5403 9.96327 17.8381 10.2802C17.1361 10.5971 16.3533 10.7555 15.4899 10.7555Z" fill="#FFD503"/>
</g>
</svg>
