<svg width="76" height="19" viewBox="0 0 76 19" fill="none" xmlns="http://www.w3.org/2000/svg">
<path fill-rule="evenodd" clip-rule="evenodd" d="M0.185547 3.56195C0.185547 1.70945 1.66847 0.189453 3.47579 0.189453H15.0612C16.8685 0.189453 18.3514 1.70945 18.3514 3.56195V15.437C18.3514 17.2895 16.8685 18.8095 15.0612 18.8095H3.47579C1.66847 18.8095 0.185547 17.2895 0.185547 15.437V3.56195ZM28.2685 12.3018V8.88177L26.6466 11.6843H26.0905L24.4685 8.92927V12.2543H23.171V6.64927H24.2368L26.3222 10.1643L28.3612 6.64927H29.4271V12.3493H28.2685V12.3018ZM31.4661 12.1119C31.8368 12.3019 32.2075 12.3969 32.671 12.3969C33.1344 12.3969 33.5051 12.3019 33.8758 12.1119C34.2002 11.9219 34.5246 11.6369 34.71 11.3044C34.8954 10.9719 34.988 10.5919 34.988 10.1644C34.988 9.73686 34.8954 9.35686 34.71 9.02436C34.5246 8.69186 34.2466 8.40686 33.8758 8.21686C33.5051 8.02686 33.1344 7.93186 32.671 7.93186C32.2539 7.93186 31.8368 8.02686 31.4661 8.21686C31.1417 8.40686 30.8173 8.69186 30.6319 9.02436C30.4466 9.35686 30.3539 9.73686 30.3539 10.1644C30.3539 10.5919 30.4466 10.9719 30.6319 11.3044C30.8173 11.6369 31.0954 11.9219 31.4661 12.1119ZM33.4588 11.0194C33.2734 11.2569 32.9953 11.3519 32.671 11.3519C32.3466 11.3519 32.0685 11.2569 31.8832 11.0194C31.6514 10.7819 31.5588 10.4969 31.5588 10.1169C31.5588 9.78436 31.6978 9.45186 31.8832 9.26186C32.0685 9.02436 32.3466 8.92936 32.671 8.92936C32.9953 8.92936 33.2734 9.02436 33.4588 9.26186C33.6905 9.45186 33.7832 9.73686 33.7832 10.1169C33.7832 10.4969 33.6441 10.7819 33.4588 11.0194ZM40.549 11.3042V13.2992H39.3905V12.3492H36.3783V13.2992H35.2197V11.3042H35.4051C35.6832 11.3042 35.8685 11.1617 35.9612 10.8292C36.0539 10.5442 36.1002 10.0692 36.1466 9.49918L36.1929 7.97918H39.9002V11.3042H40.549ZM37.2588 9.54668C37.2588 10.0217 37.2124 10.3542 37.1661 10.6392C37.1197 10.9242 37.0271 11.1617 36.888 11.3042H38.6954V9.02418H37.3051L37.2588 9.54668ZM43.5613 12.5866L45.5076 7.93158L44.3027 7.97908L43.0978 10.9241L41.893 7.88408H40.5954L42.4491 12.3016V12.3491C42.3564 12.5391 42.2637 12.6816 42.171 12.7766C42.0783 12.8716 41.9393 12.9191 41.7539 12.9191C41.6439 12.9191 41.5629 12.8893 41.465 12.8534C41.4392 12.8439 41.4122 12.834 41.3832 12.8241C41.2442 12.7766 41.1515 12.7291 41.0588 12.6341L40.5954 13.5366C40.7808 13.6791 40.9198 13.7741 41.1515 13.8216C41.3369 13.8691 41.5686 13.9166 41.8003 13.9166C42.171 13.9166 42.5417 13.8216 42.8198 13.6316C43.0978 13.4416 43.3759 13.1091 43.5613 12.5866ZM49.8173 12.3019H48.5661V8.97686H47.2222L47.1758 9.73686C47.1758 10.1723 47.1218 10.5523 47.0756 10.8768L47.0755 10.877L47.0753 10.8786C47.0611 10.9782 47.0477 11.0727 47.0368 11.1619C46.9441 11.5419 46.8051 11.8269 46.6197 12.0644C46.4344 12.2544 46.1563 12.3969 45.8319 12.3969C45.6962 12.3969 45.5605 12.3714 45.3885 12.3391C45.3255 12.3273 45.2577 12.3146 45.1832 12.3019L45.2295 11.2569H45.4149C45.6002 11.2569 45.7393 11.2094 45.8319 11.0669C45.9246 10.9244 45.971 10.7344 46.0173 10.5444C46.0429 10.4393 46.0544 10.2907 46.0673 10.1226V10.1225C46.0778 9.98664 46.0893 9.838 46.11 9.68936L46.1563 7.93186H49.8173V12.3019ZM54.5441 9.73686C54.2197 9.49936 53.8026 9.35686 53.2465 9.35686H52.1343V7.93186H50.9295V12.3019H53.1075C53.7099 12.3019 54.1734 12.1594 54.4977 11.9219C54.8221 11.6369 55.0075 11.2569 55.0075 10.7819C55.0075 10.3544 54.8221 9.97436 54.5441 9.73686ZM53.5709 11.3044C53.4319 11.3994 53.2465 11.4469 53.0148 11.4469L52.227 11.3994V10.2119H53.0148C53.2929 10.2119 53.4319 10.2594 53.5709 10.3544C53.7099 10.4494 53.7563 10.6394 53.7563 10.8294C53.7563 11.0194 53.7099 11.2094 53.5709 11.3044ZM58.1588 8.26427C58.5759 8.26427 58.9466 8.35927 59.2247 8.50177C59.5491 8.64427 59.7808 8.88177 59.9198 9.21427C60.1052 9.49927 60.1515 9.87927 60.1515 10.3068C60.1515 10.7343 60.0588 11.1143 59.8735 11.3993C59.6881 11.7318 59.41 11.9693 59.0393 12.1593C58.6686 12.3493 58.2978 12.3968 57.8344 12.3968C57.093 12.3968 56.4905 12.1593 56.0734 11.6843C55.6564 11.1618 55.4247 10.4968 55.4247 9.49927C55.4247 8.64427 55.61 7.93177 55.9808 7.40927C56.3515 6.88677 56.9539 6.55427 57.6954 6.36427L59.7344 5.93677L59.9198 7.02927L58.1125 7.40927C57.6027 7.50427 57.2783 7.64677 57.0466 7.88427C56.8149 8.12177 56.6759 8.45427 56.6295 8.83427C56.8149 8.64427 57.0466 8.45427 57.2783 8.35927C57.5564 8.31177 57.8808 8.26427 58.1588 8.26427ZM57.8808 11.4468C58.2052 11.4468 58.4369 11.3518 58.6686 11.1143C58.8539 10.9243 58.9466 10.6393 58.9466 10.3068C58.9466 9.97427 58.8539 9.68927 58.6686 9.49927C58.4832 9.30927 58.2052 9.21427 57.8808 9.21427C57.5564 9.21427 57.2783 9.30927 57.093 9.49927C56.9076 9.68927 56.8149 9.97427 56.8149 10.3068C56.8149 10.6393 56.9076 10.9243 57.093 11.1143C57.2783 11.3518 57.5564 11.4468 57.8808 11.4468ZM64.0905 8.35908C63.7197 8.02658 63.21 7.88408 62.5612 7.88408C62.2368 7.88408 61.8661 7.93158 61.5417 8.07408C61.2173 8.16908 60.9392 8.31158 60.7075 8.45408L61.1709 9.35658C61.31 9.21408 61.4953 9.11908 61.727 9.07158C61.9587 9.02408 62.1905 8.97658 62.4222 8.97658C62.7465 8.97658 63.0246 9.07158 63.1636 9.21408C63.3027 9.35658 63.3953 9.54658 63.3953 9.83158H62.4222C61.8197 9.83158 61.31 9.92658 61.0319 10.1641C60.7075 10.4016 60.5685 10.7341 60.5685 11.1141C60.5685 11.3516 60.6148 11.5891 60.7539 11.7791C60.8929 11.9691 61.0783 12.1591 61.31 12.2541C61.588 12.3966 61.8661 12.4441 62.1905 12.4441C62.8392 12.4441 63.2563 12.2066 63.488 11.8266V12.3491H64.6466V9.83158C64.6466 9.16658 64.4612 8.69158 64.0905 8.35908ZM63.0246 11.3991C62.8392 11.4941 62.6539 11.5416 62.4685 11.5416C62.2368 11.5416 62.0978 11.4941 61.9124 11.3516C61.7734 11.2566 61.727 11.1141 61.727 10.9716C61.727 10.6391 62.0051 10.4491 62.5148 10.4491H63.349V10.9241C63.3026 11.1616 63.1636 11.3041 63.0246 11.3991ZM65.6198 7.93186H66.8247V9.64186H68.6783V7.93186H69.9295V12.3019H68.6783V10.6869H66.8247V12.3019H65.6198V7.93186ZM72.2929 10.6867H72.9417L74.1003 12.3492H75.5832L73.9612 10.0692L75.4442 7.97918H74.1003L72.9417 9.68918H72.2929V7.97918H71.0417V12.3492H72.2929V10.6867Z" fill="#072DA0"/>
<path fill-rule="evenodd" clip-rule="evenodd" d="M3.47561 19H15.061C16.961 19 18.5366 17.385 18.5366 15.4375V3.5625C18.5366 1.615 16.961 0 15.061 0H3.47561C1.57561 0 0 1.615 0 3.5625V15.4375C0 17.385 1.57561 19 3.47561 19ZM0.370731 3.5625C0.370731 1.805 1.76098 0.38 3.47561 0.38H15.061C16.7756 0.38 18.1659 1.805 18.1659 3.5625V15.4375C18.1659 17.195 16.7756 18.62 15.061 18.62H3.47561C1.76098 18.62 0.370731 17.195 0.370731 15.4375V3.5625ZM13.9024 6.65H12.0488V4.75H8.34146V6.65H6.4878V4.75H4.63415V8.55H6.4878V10.45H4.63415V14.2975H6.4878V12.35H8.34146V14.25H10.1951V12.35H12.0488V14.25H13.9024V12.35H12.0488V10.45H13.9024V6.65ZM10.1951 10.45H12.0488V8.55H10.1951V6.65H8.34146V8.55H10.1951V10.45ZM10.1951 10.45H8.34146V12.35H10.1951V10.45Z" fill="white"/>
</svg>
