<svg width="13" height="14" viewBox="0 0 13 14" fill="none" xmlns="http://www.w3.org/2000/svg">
<path d="M0 6.76758C0 4.7485 0 3.73896 0.329855 2.94262C0.769662 1.88083 1.61325 1.03724 2.67504 0.597433C3.47138 0.267578 4.48092 0.267578 6.5 0.267578C8.51908 0.267578 9.52862 0.267578 10.325 0.597433C11.3868 1.03724 12.2303 1.88083 12.6701 2.94262C13 3.73896 13 4.7485 13 6.76758C13 8.78666 13 9.7962 12.6701 10.5925C12.2303 11.6543 11.3868 12.4979 10.325 12.9377C9.52862 13.2676 8.51908 13.2676 6.5 13.2676C4.48092 13.2676 3.47138 13.2676 2.67504 12.9377C1.61325 12.4979 0.769662 11.6543 0.329855 10.5925C0 9.7962 0 8.78666 0 6.76758Z" fill="#EA2F3A"/>
<path d="M7.34028 3.94082H6.73903C5.63837 3.94082 5.05986 4.49873 5.05986 5.32044C5.05986 6.24994 5.45962 6.68598 6.28187 7.24336L6.96112 7.70161L5.00949 10.6185H3.55078L5.30253 8.00873C4.29449 7.28669 3.72953 6.58578 3.72953 5.39898C3.72953 3.91211 4.76628 2.89648 6.73253 2.89648H8.68416V10.6114H7.34028V3.94082Z" fill="white"/>
</svg>
