<svg width="16" height="17" viewBox="0 0 16 17" fill="none" xmlns="http://www.w3.org/2000/svg">
<path d="M2.33203 15.9349H13.6654C13.9387 15.9349 14.1654 15.7082 14.1654 15.4349C14.1654 15.1616 13.9387 14.9349 13.6654 14.9349H2.33203C2.0587 14.9349 1.83203 15.1616 1.83203 15.4349C1.83203 15.7082 2.0587 15.9349 2.33203 15.9349Z" fill="#8833FF"/>
<path d="M3.33207 12.9349C3.45874 12.9349 3.5854 12.8882 3.6854 12.7882L13.0187 3.4549C13.2121 3.26156 13.2121 2.94156 13.0187 2.74823C12.8254 2.5549 12.5054 2.5549 12.3121 2.74823L2.97874 12.0816C2.78541 12.2749 2.78541 12.5949 2.97874 12.7882C3.07874 12.8882 3.2054 12.9349 3.33207 12.9349Z" fill="#8833FF"/>
<path d="M12.6654 10.4482C12.9387 10.4482 13.1654 10.2216 13.1654 9.94823V3.10156C13.1654 2.82823 12.9387 2.60156 12.6654 2.60156H5.8187C5.54536 2.60156 5.3187 2.82823 5.3187 3.10156C5.3187 3.3749 5.54536 3.60156 5.8187 3.60156H12.1654V9.94823C12.1654 10.2216 12.392 10.4482 12.6654 10.4482Z" fill="#8833FF"/>
<path d="M2.33203 15.9349H13.6654C13.9387 15.9349 14.1654 15.7082 14.1654 15.4349C14.1654 15.1616 13.9387 14.9349 13.6654 14.9349H2.33203C2.0587 14.9349 1.83203 15.1616 1.83203 15.4349C1.83203 15.7082 2.0587 15.9349 2.33203 15.9349Z" stroke="#8833FF"/>
<path d="M3.33207 12.9349C3.45874 12.9349 3.5854 12.8882 3.6854 12.7882L13.0187 3.4549C13.2121 3.26156 13.2121 2.94156 13.0187 2.74823C12.8254 2.5549 12.5054 2.5549 12.3121 2.74823L2.97874 12.0816C2.78541 12.2749 2.78541 12.5949 2.97874 12.7882C3.07874 12.8882 3.2054 12.9349 3.33207 12.9349Z" stroke="#8833FF"/>
<path d="M12.6654 10.4482C12.9387 10.4482 13.1654 10.2216 13.1654 9.94823V3.10156C13.1654 2.82823 12.9387 2.60156 12.6654 2.60156H5.8187C5.54536 2.60156 5.3187 2.82823 5.3187 3.10156C5.3187 3.3749 5.54536 3.60156 5.8187 3.60156H12.1654V9.94823C12.1654 10.2216 12.392 10.4482 12.6654 10.4482Z" stroke="#8833FF"/>
</svg>
