<svg width="32" height="32" viewBox="0 0 32 32" fill="none" xmlns="http://www.w3.org/2000/svg">
<path d="M14.6249 13.2929C14.9799 12.9379 15.5355 12.9056 15.927 13.1961L16.0391 13.2929L20.0391 17.2929C20.4297 17.6834 20.4297 18.3166 20.0391 18.7071C19.6841 19.0621 19.1286 19.0944 18.7371 18.8039L18.6249 18.7071L14.6249 14.7071C14.2344 14.3166 14.2344 13.6834 14.6249 13.2929Z" fill="#8833FF"/>
<path d="M18.6249 13.2929C19.0154 12.9024 19.6486 12.9024 20.0391 13.2929C20.3942 13.6479 20.4264 14.2035 20.136 14.5949L20.0391 14.7071L16.0391 18.7071C15.6486 19.0976 15.0154 19.0976 14.6249 18.7071C14.2699 18.3521 14.2376 17.7965 14.5281 17.4051L14.6249 17.2929L18.6249 13.2929Z" fill="#8833FF"/>
<path fill-rule="evenodd" clip-rule="evenodd" d="M12.5333 5.66602H22.6666C26.1644 5.66602 29 8.50155 29 11.9993V19.9993C29 23.4972 26.1644 26.3327 22.6666 26.3327H12.5333C10.6094 26.3327 8.78973 25.4581 7.58784 23.9558L4.38784 19.9558C2.53739 17.6427 2.53739 14.356 4.38784 12.0429L7.58784 8.04293C8.78973 6.54058 10.6094 5.66602 12.5333 5.66602ZM22.6666 7.66602H12.5333C11.2169 7.66602 9.97192 8.2644 9.14958 9.29232L5.94958 13.2923C4.68347 14.8749 4.68347 17.1238 5.94958 18.7064L9.14958 22.7064C9.97192 23.7343 11.2169 24.3327 12.5333 24.3327H22.6666C25.0599 24.3327 27 22.3926 27 19.9993V11.9993C27 9.60611 25.0599 7.66602 22.6666 7.66602Z" fill="#8833FF"/>
</svg>
