<svg width="24" height="25" viewBox="0 0 24 25" fill="none" xmlns="http://www.w3.org/2000/svg">
<path d="M17.8321 19.3947L5.10415 6.66677C4.81424 6.37685 4.81424 5.89602 5.10415 5.60611C5.39407 5.31619 5.8749 5.31619 6.16481 5.60611L18.8927 18.334C19.1826 18.6239 19.1827 19.1048 18.8927 19.3947C18.6028 19.6846 18.122 19.6846 17.8321 19.3947Z" fill="#662AB2"/>
<path d="M5.10433 19.3947C4.81441 19.1048 4.81441 18.6239 5.10433 18.334L17.8322 5.60611C18.1222 5.31619 18.603 5.31619 18.8929 5.60611C19.1828 5.89602 19.1828 6.37685 18.8929 6.66677L6.16499 19.3947C5.87507 19.6846 5.39424 19.6846 5.10433 19.3947Z" fill="#662AB2"/>
</svg>
