<svg width="41" height="41" viewBox="0 0 41 41" fill="none" xmlns="http://www.w3.org/2000/svg">
<path d="M11.0546 35.8696C10.3432 37.0272 8.81695 37.3998 7.75292 36.555C6.23743 35.3517 4.89665 33.9373 3.77316 32.3517C2.17443 30.0953 1.04874 27.5389 0.463824 24.8361C-0.121089 22.1333 -0.153131 19.3402 0.369627 16.6247C0.892386 13.9092 1.95914 11.3276 3.50568 9.03513C5.05223 6.7427 7.04659 4.78686 9.36876 3.28531C11.6909 1.78377 14.2929 0.767575 17.018 0.297876C19.7432 -0.171823 22.5352 -0.0853127 25.226 0.552201C27.117 1.00021 28.9305 1.71383 30.6137 2.6685C31.7955 3.33877 32.0215 4.89356 31.2146 5.98658C30.4077 7.07961 28.8738 7.2916 27.6675 6.66658C26.5372 6.08093 25.3365 5.63458 24.0918 5.33967C22.0467 4.85516 19.9248 4.78941 17.8537 5.14639C15.7826 5.50336 13.8051 6.27567 12.0403 7.41684C10.2754 8.55801 8.75969 10.0445 7.58432 11.7867C6.40894 13.529 5.59821 15.491 5.20092 17.5548C4.80362 19.6185 4.82797 21.7413 5.27251 23.7954C5.71704 25.8495 6.57257 27.7925 7.7876 29.5073C8.52716 30.5511 9.3906 31.4972 10.3569 32.326C11.3882 33.2105 11.7659 34.7121 11.0546 35.8696Z" fill="#662AB2"/>
<path d="M33.2562 7.74379C34.2169 6.7831 35.788 6.7751 36.6268 7.84389C38.7741 10.58 40.1986 13.8293 40.7473 17.2911C41.2959 20.7529 40.9459 24.2834 39.7499 27.5493C39.2827 28.8251 37.7861 29.3033 36.5754 28.6868C35.3647 28.0702 34.9039 26.5919 35.3224 25.2994C36.0747 22.9758 36.2738 20.4961 35.8879 18.0612C35.502 15.6263 34.546 13.3297 33.112 11.3526C32.3143 10.2528 32.2955 8.70448 33.2562 7.74379Z" fill="#9747FF"/>
</svg>
