<svg width="18" height="18" viewBox="0 0 18 18" fill="none" xmlns="http://www.w3.org/2000/svg">
<g id="&#208;&#152;&#208;&#186;&#208;&#190;&#208;&#189;&#208;&#186;&#208;&#184;">
<path id="Vector (Stroke)" fill-rule="evenodd" clip-rule="evenodd" d="M5.53876 3.63371C5.53876 3.25136 5.84872 2.94141 6.23107 2.94141H12.1157C13.6451 2.94141 14.8849 4.18123 14.8849 5.71064V11.5953C14.8849 11.9776 14.575 12.2876 14.1926 12.2876C13.8103 12.2876 13.5003 11.9776 13.5003 11.5953V5.71064C13.5003 4.94594 12.8804 4.32602 12.1157 4.32602H6.23107C5.84872 4.32602 5.53876 4.01607 5.53876 3.63371ZM2.76953 7.44141C2.76953 6.29435 3.6994 5.36448 4.84645 5.36448H10.3849C11.532 5.36448 12.4618 6.29435 12.4618 7.44141V12.9799C12.4618 14.1269 11.532 15.0568 10.3849 15.0568H4.84645C3.6994 15.0568 2.76953 14.1269 2.76953 12.9799V7.44141ZM4.84645 6.7491C4.4641 6.7491 4.15415 7.05906 4.15415 7.44141V12.9799C4.15415 13.3622 4.4641 13.6722 4.84645 13.6722H10.3849C10.7673 13.6722 11.0772 13.3622 11.0772 12.9799V7.44141C11.0772 7.05906 10.7673 6.7491 10.3849 6.7491H4.84645Z" fill="white"/>
</g>
</svg>
