<svg width="24" height="24" viewBox="0 0 24 24" fill="none" xmlns="http://www.w3.org/2000/svg">
<path d="M17.8321 18.8927L5.10415 6.16481C4.81424 5.8749 4.81424 5.39407 5.10415 5.10415C5.39407 4.81424 5.8749 4.81424 6.16481 5.10415L18.8927 17.8321C19.1826 18.122 19.1827 18.6028 18.8927 18.8927C18.6028 19.1827 18.122 19.1826 17.8321 18.8927Z" fill="#26334D"/>
<path d="M5.10433 18.8927C4.81441 18.6028 4.81441 18.122 5.10433 17.8321L17.8322 5.10415C18.1222 4.81424 18.603 4.81424 18.8929 5.10415C19.1828 5.39407 19.1828 5.8749 18.8929 6.16481L6.16499 18.8927C5.87507 19.1826 5.39424 19.1827 5.10433 18.8927Z" fill="#26334D"/>
</svg>
