<svg width="24" height="24" viewBox="0 0 24 24" fill="none" xmlns="http://www.w3.org/2000/svg">
<path fill-rule="evenodd" clip-rule="evenodd" d="M2.45798 11.1753C4.62292 7.1715 8.40331 4.25 11.9997 4.25C15.5963 4.25 19.3767 7.17182 21.5418 11.1769C21.8187 11.6902 21.8187 12.3108 21.5414 12.8247C19.3765 16.8285 15.5961 19.75 11.9997 19.75C8.40308 19.75 4.62267 16.8282 2.45765 12.8231C2.18073 12.3098 2.18073 11.6892 2.45798 11.1753ZM20.2219 11.8897C18.2946 8.32433 14.9638 5.75 11.9997 5.75C9.03577 5.75 5.70493 8.32409 3.77777 11.8881C3.74069 11.9568 3.74069 12.0422 3.77748 12.1103C5.70479 15.6757 9.0356 18.25 11.9997 18.25C14.9636 18.25 18.2945 15.6759 20.2216 12.1119C20.2587 12.0432 20.2587 11.9578 20.2219 11.8897Z" fill="#8833FF"/>
<path fill-rule="evenodd" clip-rule="evenodd" d="M14.6259 9.37305C13.1753 7.92253 10.8236 7.92253 9.37305 9.37305C7.92253 10.8236 7.92253 13.1753 9.37305 14.6259C10.8236 16.0764 13.1753 16.0764 14.6259 14.6259C16.0764 13.1753 16.0764 10.8236 14.6259 9.37305ZM10.3832 10.3832C11.2333 9.53311 12.5865 9.49263 13.4845 10.2618L13.6157 10.3832L13.7371 10.5144C14.5063 11.4124 14.4658 12.7656 13.6157 13.6157C12.7231 14.5083 11.2758 14.5083 10.3832 13.6157C9.4906 12.7231 9.4906 11.2758 10.3832 10.3832Z" fill="#8833FF"/>
</svg>
