<svg width="24" height="24" viewBox="0 0 24 24" fill="none" xmlns="http://www.w3.org/2000/svg">
<path d="M8.79686 18.2334C8.94638 17.8471 9.38073 17.6552 9.76702 17.8047C10.5255 18.0983 11.2757 18.2491 12.0003 18.2491C12.4145 18.2491 12.7503 18.5849 12.7503 18.9991C12.7503 19.4133 12.4145 19.7491 12.0003 19.7491C11.0831 19.7491 10.1507 19.5616 9.22557 19.2035C8.83929 19.054 8.64734 18.6197 8.79686 18.2334Z" fill="#8833FF"/>
<path d="M20.2223 12.1122C20.4193 11.7478 20.8744 11.6121 21.2387 11.8092C21.6031 12.0062 21.7387 12.4613 21.5417 12.8256C19.3768 16.8294 15.5964 19.7509 12 19.7509C11.5858 19.7509 11.25 19.4151 11.25 19.0009C11.25 18.5867 11.5858 18.2509 12 18.2509C14.9639 18.2509 18.2948 15.6768 20.2223 12.1122Z" fill="#8833FF"/>
<path d="M18.591 8.3516C18.906 8.08258 19.3794 8.11982 19.6484 8.43478C20.3833 9.29517 21.0242 10.2216 21.5412 11.1778C21.8181 11.691 21.8181 12.3117 21.5412 12.825C21.3445 13.1895 20.8896 13.3256 20.525 13.129C20.1605 12.9323 20.0244 12.4773 20.2211 12.1128C20.2582 12.044 20.2582 11.9587 20.2214 11.8906C19.756 11.0298 19.1753 10.1904 18.5079 9.409C18.2388 9.09403 18.2761 8.62062 18.591 8.3516Z" fill="#8833FF"/>
<path d="M18.4697 4.46967C18.7626 4.17678 19.2374 4.17678 19.5303 4.46967C19.7966 4.73594 19.8208 5.1526 19.6029 5.44621L19.5303 5.53033L5.53033 19.5303C5.23744 19.8232 4.76256 19.8232 4.46967 19.5303C4.2034 19.2641 4.1792 18.8474 4.39705 18.5538L4.46967 18.4697L18.4697 4.46967Z" fill="#8833FF"/>
<path d="M9.24178 9.24178C10.7647 7.71889 13.2345 7.71889 14.7574 9.24178C15.0503 9.53467 15.0503 10.0095 14.7574 10.3024C14.4645 10.5953 13.9897 10.5953 13.6968 10.3024C12.7597 9.36533 11.2395 9.36533 10.3024 10.3024C9.36533 11.2395 9.36533 12.7597 10.3024 13.6968C10.5953 13.9897 10.5953 14.4645 10.3024 14.7574C10.0095 15.0503 9.53467 15.0503 9.24178 14.7574C7.71889 13.2345 7.71889 10.7647 9.24178 9.24178Z" fill="#8833FF"/>
<path d="M11.9997 4.25C13.854 4.25 15.7529 5.00893 17.5027 6.36283C17.8303 6.61631 17.8904 7.08737 17.6369 7.41497C17.3834 7.74257 16.9123 7.80265 16.5847 7.54917C15.0802 6.38503 13.4914 5.75 11.9997 5.75C9.0356 5.75 5.7048 8.32433 3.77778 11.8891C3.74069 11.9578 3.74069 12.0432 3.7774 12.1112C4.68991 13.7983 5.97647 15.3392 7.41463 16.4518C7.74225 16.7052 7.80238 17.1763 7.54892 17.5039C7.29547 17.8315 6.82442 17.8917 6.4968 17.6382C4.88979 16.395 3.46802 14.6921 2.45765 12.8241C2.18073 12.3108 2.18073 11.6902 2.45794 11.1763C4.62267 7.17182 8.40308 4.25 11.9997 4.25Z" fill="#8833FF"/>
</svg>
