<svg width="18" height="19" viewBox="0 0 18 19" fill="none" xmlns="http://www.w3.org/2000/svg">
<g id="Group">
<g id="Group_2">
<path id="Path" d="M16 0.25C16.9179 0.25 17.6712 0.957367 17.7442 1.85651L17.75 2V4.586C17.75 4.99212 17.609 5.38335 17.3537 5.69489L17.2373 5.82333L12.0303 11.0303C11.7374 11.3232 11.2626 11.3232 10.9697 11.0303C10.7034 10.7641 10.6792 10.3474 10.8971 10.0538L10.9697 9.96967L16.1767 4.76267C16.2081 4.73122 16.2302 4.69267 16.2415 4.6508L16.25 4.586V2C16.25 1.8819 16.1676 1.78258 16.0572 1.75662L16 1.75H2C1.8819 1.75 1.78258 1.83244 1.75662 1.94277L1.75 2V4.586C1.75 4.63031 1.76164 4.67322 1.78337 4.7108L1.82333 4.76267L7.03033 9.96967C7.32322 10.2626 7.32322 10.7374 7.03033 11.0303C6.76406 11.2966 6.3474 11.3208 6.05379 11.1029L5.96967 11.0303L0.764086 5.82474C0.475834 5.53802 0.298426 5.16046 0.258578 4.75922L0.25 4.586V2C0.25 1.0821 0.957367 0.328835 1.85651 0.255803L2 0.25H16Z" fill="#323232"/>
<path id="Path_2" d="M11.5 9.75C11.8797 9.75 12.1935 10.0322 12.2432 10.3982L12.25 10.5V16.124C12.25 16.9879 11.6964 17.7475 10.8892 18.0194L10.7349 18.0646L8.23468 18.6897C7.02098 18.9927 5.84409 18.1215 5.75536 16.8975L5.75 16.749V10.5C5.75 10.0858 6.08579 9.75 6.5 9.75C6.8797 9.75 7.19349 10.0322 7.24315 10.3982L7.25 10.5V16.749C7.25 17.0447 7.50268 17.269 7.78555 17.2482L7.8711 17.2344L10.3711 16.6094C10.5658 16.5607 10.7099 16.4013 10.7428 16.2085L10.75 16.124V10.5C10.75 10.0858 11.0858 9.75 11.5 9.75Z" fill="#323232"/>
</g>
</g>
</svg>
