<svg width="25" height="25" viewBox="0 0 25 25" fill="none" xmlns="http://www.w3.org/2000/svg">
<g id="Interface Essential/clock-watch-refresh-reload-loading">
<g id="Group">
<g id="Group_2">
<path id="Path" d="M11.8633 7.5C12.243 7.5 12.5568 7.78215 12.6064 8.14823L12.6133 8.25L12.6123 12.535L15.8988 14.4905C16.2251 14.6846 16.3505 15.0876 16.206 15.4275L16.1598 15.5185C15.9657 15.8448 15.5627 15.9702 15.2227 15.8257L15.1318 15.7795L11.4798 13.6065C11.285 13.4906 11.1549 13.2942 11.1217 13.0739L11.1133 12.962V8.25C11.1133 7.83579 11.4491 7.5 11.8633 7.5Z" fill="#26334D"/>
<path id="Path_2" d="M3.66797 5.26562C4.04766 5.26562 4.36146 5.54778 4.41112 5.91385L4.41797 6.01562V7.76562H6.16797C6.54766 7.76562 6.86146 8.04778 6.91112 8.41385L6.91797 8.51562C6.91797 8.89532 6.63581 9.20912 6.26974 9.25878L6.16797 9.26562H3.66797C3.28827 9.26562 2.97448 8.98347 2.92482 8.6174L2.91797 8.51562V6.01562C2.91797 5.60141 3.25376 5.26562 3.66797 5.26562Z" fill="#26334D"/>
<path id="Path_3" d="M12.4906 2.51562C17.8758 2.51562 22.2406 6.88041 22.2406 12.2656C22.2406 12.6798 21.9048 13.0156 21.4906 13.0156C21.0764 13.0156 20.7406 12.6798 20.7406 12.2656C20.7406 7.70884 17.0474 4.01562 12.4906 4.01562C9.23847 4.01562 6.33567 5.91861 4.99805 8.82884C4.82507 9.20521 4.37973 9.37008 4.00337 9.19709C3.62701 9.0241 3.46214 8.57877 3.63512 8.20241C5.21496 4.76517 8.6464 2.51562 12.4906 2.51562Z" fill="#26334D"/>
<path id="Path_4" d="M21.668 15.2656C22.0477 15.2656 22.3615 15.5478 22.4111 15.9139L22.418 16.0156V18.5156C22.418 18.9298 22.0822 19.2656 21.668 19.2656C21.2883 19.2656 20.9745 18.9835 20.9248 18.6174L20.918 18.5156V16.7656H19.168C18.7883 16.7656 18.4745 16.4835 18.4248 16.1174L18.418 16.0156C18.418 15.6359 18.7001 15.3221 19.0662 15.2725L19.168 15.2656H21.668Z" fill="#26334D"/>
<path id="Path_5" d="M3.84375 11.5156C4.25796 11.5156 4.59375 11.8514 4.59375 12.2656C4.59375 16.8224 8.28696 20.5156 12.8438 20.5156C16.0952 20.5156 18.9988 18.6123 20.3363 15.7024C20.5093 15.326 20.9546 15.1612 21.331 15.3342C21.7073 15.5071 21.8722 15.9525 21.6992 16.3288C20.1195 19.7657 16.6873 22.0156 12.8438 22.0156C7.45854 22.0156 3.09375 17.6508 3.09375 12.2656C3.09375 11.8514 3.42954 11.5156 3.84375 11.5156Z" fill="#26334D"/>
</g>
</g>
</g>
</svg>
