<svg width="21" height="21" viewBox="0 0 21 21" fill="none" xmlns="http://www.w3.org/2000/svg">
<g id="Group">
<path id="Path" fill-rule="evenodd" clip-rule="evenodd" d="M10.25 10.5156H10.75C12.683 10.5156 14.25 12.0826 14.25 14.0156V19.2656C14.25 19.6798 13.9142 20.0156 13.5 20.0156H7.5C7.08579 20.0156 6.75 19.6798 6.75 19.2656V14.0156C6.75 12.0826 8.317 10.5156 10.25 10.5156ZM10.8993 12.0211L10.75 12.0156H10.25C9.14543 12.0156 8.25 12.9111 8.25 14.0156V18.5156H12.75V14.0156C12.75 12.9613 11.9341 12.0975 10.8993 12.0211Z" fill="#662AB2"/>
<path id="Path_2" fill-rule="evenodd" clip-rule="evenodd" d="M2.72033 5.12579L6.90798 1.77565C9.00799 0.095616 11.992 0.095616 14.092 1.77565L18.2797 5.12578C19.525 6.12209 20.25 7.63047 20.25 9.22533V16.2656C20.25 18.3367 18.5711 20.0156 16.5 20.0156H4.5C2.42893 20.0156 0.75 18.3367 0.75 16.2656V9.22534C0.75 7.63048 1.47496 6.1221 2.72033 5.12579ZM17.3426 6.29708L13.155 2.94695C11.6028 1.70518 9.39721 1.70518 7.84502 2.94695L3.65737 6.29709C2.76783 7.00874 2.25 8.08615 2.25 9.22534V16.2656C2.25 17.5083 3.25736 18.5156 4.5 18.5156H16.5C17.7426 18.5156 18.75 17.5083 18.75 16.2656V9.22533C18.75 8.08615 18.2322 7.00873 17.3426 6.29708Z" fill="#662AB2"/>
</g>
</svg>
