<svg width="16" height="17" viewBox="0 0 16 17" fill="none" xmlns="http://www.w3.org/2000/svg">
<path d="M2.33203 15.666H13.6654C13.9387 15.666 14.1654 15.4393 14.1654 15.166C14.1654 14.8927 13.9387 14.666 13.6654 14.666H2.33203C2.0587 14.666 1.83203 14.8927 1.83203 15.166C1.83203 15.4393 2.0587 15.666 2.33203 15.666Z" fill="#8833FF"/>
<path d="M2.33203 16.166H13.6654V15.166H2.33203V16.166ZM13.6654 16.166C14.2148 16.166 14.6654 15.7155 14.6654 15.166H13.6654V15.166V16.166ZM14.6654 15.166C14.6654 14.6165 14.2148 14.166 13.6654 14.166V15.166V15.166H14.6654ZM13.6654 14.166H2.33203V15.166H13.6654V14.166ZM2.33203 14.166C1.78256 14.166 1.33203 14.6165 1.33203 15.166H2.33203L2.33203 15.166V14.166ZM1.33203 15.166C1.33203 15.7155 1.78256 16.166 2.33203 16.166V15.166L2.33203 15.166H1.33203Z" fill="#8833FF"/>
<path d="M12.6696 2.16666C12.543 2.16666 12.4163 2.21333 12.3163 2.31333L2.98297 11.6467C2.78964 11.84 2.78964 12.16 2.98297 12.3533C3.1763 12.5467 3.4963 12.5467 3.68964 12.3533L13.023 3.02C13.2163 2.82666 13.2163 2.50666 13.023 2.31333C12.923 2.21333 12.7963 2.16666 12.6696 2.16666Z" fill="#8833FF"/>
<path d="M3.33634 4.65333C3.06301 4.65333 2.83634 4.88 2.83634 5.15333V12C2.83634 12.2733 3.06301 12.5 3.33634 12.5H10.183C10.4563 12.5 10.683 12.2733 10.683 12C10.683 11.7267 10.4563 11.5 10.183 11.5H3.83634V5.15333C3.83634 4.88 3.60968 4.65333 3.33634 4.65333Z" fill="#8833FF"/>
<path d="M12.3163 2.31333L11.9628 1.95978L12.3163 2.31333ZM2.98297 11.6467L3.33652 12.0002V12.0002L2.98297 11.6467ZM3.68964 12.3533L3.33608 11.9998L3.68964 12.3533ZM13.023 3.02L13.3765 3.37355H13.3765L13.023 3.02ZM13.023 2.31333L13.3765 1.95978L13.023 2.31333ZM3.83634 11.5H3.33634V12H3.83634V11.5ZM12.6696 1.66666C12.4175 1.66666 12.1615 1.76107 11.9628 1.95978L12.6699 2.66688L12.6696 2.66666V1.66666ZM11.9628 1.95978L2.62942 11.2931L3.33652 12.0002L12.6699 2.66688L11.9628 1.95978ZM2.62942 11.2931C2.24082 11.6817 2.24082 12.3183 2.62942 12.7069L3.33652 11.9998V12.0002L2.62942 11.2931ZM2.62942 12.7069C3.01801 13.0955 3.65459 13.0955 4.04319 12.7069L3.33608 11.9998H3.33652L2.62942 12.7069ZM4.04319 12.7069L13.3765 3.37355L12.6694 2.66644L3.33608 11.9998L4.04319 12.7069ZM13.3765 3.37355C13.7651 2.98496 13.7651 2.34837 13.3765 1.95978L12.6694 2.66688V2.66644L13.3765 3.37355ZM13.3765 1.95978C13.1778 1.76107 12.9218 1.66666 12.6696 1.66666V2.66666L12.6694 2.66688L13.3765 1.95978ZM3.33634 4.15333C2.78687 4.15333 2.33634 4.60386 2.33634 5.15333H3.33634V4.15333ZM2.33634 5.15333V12H3.33634V5.15333H2.33634ZM2.33634 12C2.33634 12.5495 2.78687 13 3.33634 13V12H2.33634ZM3.33634 13H10.183V12H3.33634V13ZM10.183 13C10.7325 13 11.183 12.5495 11.183 12H10.183V13ZM11.183 12C11.183 11.4505 10.7325 11 10.183 11V12H11.183ZM10.183 11H3.83634V12H10.183V11ZM4.33634 11.5V5.15333H3.33634V11.5H4.33634ZM4.33634 5.15333C4.33634 4.60386 3.88582 4.15333 3.33634 4.15333V5.15333H4.33634Z" fill="#8833FF"/>
</svg>
