<svg width="24" height="24" viewBox="0 0 24 24" fill="none" xmlns="http://www.w3.org/2000/svg">
<path d="M16.0039 14.75C16.4181 14.75 16.7539 15.0858 16.7539 15.5C16.7539 15.8797 16.4718 16.1935 16.1057 16.2432L16.0039 16.25H8.00391C7.58969 16.25 7.25391 15.9142 7.25391 15.5C7.25391 15.1203 7.53606 14.8065 7.90214 14.7568L8.00391 14.75H16.0039Z" fill="#662AB2"/>
<path d="M13.0039 7.75C13.4181 7.75 13.7539 8.08579 13.7539 8.5C13.7539 8.8797 13.4718 9.19349 13.1057 9.24315L13.0039 9.25H8.00391C7.58969 9.25 7.25391 8.91421 7.25391 8.5C7.25391 8.1203 7.53606 7.80651 7.90214 7.75685L8.00391 7.75H13.0039Z" fill="#662AB2"/>
<path d="M16.0039 11.25C16.4181 11.25 16.7539 11.5858 16.7539 12C16.7539 12.3797 16.4718 12.6935 16.1057 12.7432L16.0039 12.75H8.00391C7.58969 12.75 7.25391 12.4142 7.25391 12C7.25391 11.6203 7.53606 11.3065 7.90214 11.2568L8.00391 11.25H16.0039Z" fill="#662AB2"/>
<path fill-rule="evenodd" clip-rule="evenodd" d="M14.79 2.43694L15.995 3.043L17.2343 2.43131C17.7267 2.18781 18.3049 2.18967 18.7957 2.43634L19.7857 2.93384C20.3769 3.23089 20.75 3.83592 20.75 4.49752V19.5025C20.75 20.1641 20.3769 20.7691 19.7858 21.0661L18.7958 21.5637C18.3049 21.8103 17.7267 21.8122 17.2343 21.5687L15.996 20.956L14.79 21.5631C14.3524 21.7829 13.8455 21.8081 13.3919 21.6386L13.2245 21.5659L12 20.955L10.7755 21.5659C10.3371 21.7841 9.83011 21.8076 9.37712 21.6364L9.21001 21.5631L8.004 20.956L6.76575 21.5687C6.32803 21.7851 5.82254 21.8077 5.37087 21.6368L5.20425 21.5637L4.21429 21.0662C3.62312 20.7691 3.25 20.1641 3.25 19.5025V4.49752C3.25 3.83593 3.6231 3.2309 4.21423 2.93386L5.20424 2.43634C5.69509 2.18967 6.27329 2.18781 6.76573 2.43131L8.003 3.043L9.20999 2.43694C9.64758 2.21711 10.1545 2.19186 10.6081 2.3614L10.7755 2.4341L12 3.044L13.2245 2.43411C13.6629 2.21586 14.1699 2.19244 14.6229 2.36362L14.79 2.43694ZM19.1122 4.27413L18.1222 3.77662C18.0521 3.74138 17.9695 3.74112 17.8991 3.7759L16.3267 4.55349C16.1157 4.65784 15.8679 4.65706 15.6576 4.55139L14.1166 3.77731C14.0463 3.74198 13.9635 3.74183 13.893 3.77691L12.3342 4.55291C12.1237 4.65771 11.8763 4.65771 11.6658 4.55291L10.107 3.77691C10.0365 3.74183 9.95366 3.74198 9.88333 3.77732L8.34243 4.55139C8.13208 4.65706 7.88432 4.65784 7.67331 4.55349L6.10083 3.7759C6.03049 3.74112 5.94789 3.74138 5.87777 3.77661L4.88775 4.27415C4.8033 4.31658 4.75 4.40301 4.75 4.49752V19.5025C4.75 19.597 4.8033 19.6834 4.88779 19.7259L5.87778 20.2234C5.94791 20.2586 6.03051 20.2589 6.10085 20.2241L7.67333 19.4465C7.88434 19.3422 8.1321 19.3429 8.34245 19.4486L9.88335 20.2227C9.95368 20.258 10.0365 20.2582 10.107 20.2231L11.6658 19.4471C11.8763 19.3423 12.1237 19.3423 12.3342 19.4471L13.893 20.2231C13.9635 20.2582 14.0463 20.258 14.1167 20.2227L15.6576 19.4486C15.8679 19.3429 16.1157 19.3422 16.3267 19.4465L17.8992 20.2241C17.9695 20.2589 18.0521 20.2586 18.1222 20.2234L19.1123 19.7258C19.1967 19.6834 19.25 19.597 19.25 19.5025V4.49752C19.25 4.40302 19.1967 4.31659 19.1122 4.27413Z" fill="#662AB2"/>
</svg>
