<svg width="175" height="61" viewBox="0 0 175 61" fill="none" xmlns="http://www.w3.org/2000/svg">
<path d="M16.0112 26.9893L21.5143 22.1565L12.0073 13.8111C7.33481 9.70902 0 13.0264 0 19.2418V41.2885C0 47.5081 7.33066 50.8255 12.0073 46.7192L21.5143 38.3739L16.0112 33.541C14.0342 31.8055 14.0342 28.7248 16.0112 26.9852V26.9893Z" fill="url(#paint0_linear_5729_872)"/>
<path d="M31.0198 13.8111L21.5128 22.1564L27.3067 27.2467C29.13 28.8493 29.13 31.6892 27.3067 33.2877L21.5128 38.378L31.0198 46.7233C35.6923 50.8254 43.0271 47.508 43.0271 41.2926V19.2459C43.0271 13.0264 35.6964 9.70899 31.0198 13.8152V13.8111Z" fill="url(#paint1_linear_5729_872)"/>
<path d="M27.3057 27.2428L21.5118 22.1525L16.0086 26.9854C14.0316 28.7209 14.0316 31.8016 16.0086 33.5412L21.5118 38.3741L27.3057 33.2838C29.129 31.6812 29.129 28.8413 27.3057 27.2428Z" fill="url(#paint2_linear_5729_872)"/>
<path d="M87.166 25.346C87.166 27.1007 86.743 28.7457 85.897 30.281C85.0823 31.8163 83.782 33.054 81.996 33.994C80.2413 34.934 78.0167 35.404 75.322 35.404H69.823V48H63.243V15.194H75.322C77.86 15.194 80.022 15.6327 81.808 16.51C83.594 17.3873 84.9257 18.5937 85.803 20.129C86.7117 21.6643 87.166 23.4033 87.166 25.346ZM75.04 30.093C76.8573 30.093 78.2047 29.6857 79.082 28.871C79.9593 28.025 80.398 26.85 80.398 25.346C80.398 22.15 78.612 20.552 75.04 20.552H69.823V30.093H75.04ZM116.419 21.962V48H109.792V44.71C108.946 45.838 107.833 46.731 106.455 47.389C105.107 48.0157 103.635 48.329 102.037 48.329C100 48.329 98.1984 47.906 96.6317 47.06C95.0651 46.1827 93.8274 44.9137 92.9187 43.253C92.0414 41.561 91.6027 39.5557 91.6027 37.237V21.962H98.1827V36.297C98.1827 38.365 98.6997 39.963 99.7337 41.091C100.768 42.1877 102.178 42.736 103.964 42.736C105.781 42.736 107.207 42.1877 108.241 41.091C109.275 39.963 109.792 38.365 109.792 36.297V21.962H116.419ZM129.491 13.22V48H122.911V13.22H129.491ZM142.572 13.22V48H135.992V13.22H142.572ZM173.983 21.962L157.862 60.314H150.859L156.499 47.342L146.065 21.962H153.444L160.165 40.151L166.98 21.962H173.983Z" fill="#230F60"/>
<defs>
<linearGradient id="paint0_linear_5729_872" x1="0.0290732" y1="15.1646" x2="17.3564" y2="43.594" gradientUnits="userSpaceOnUse">
<stop stop-color="#5086FF"/>
<stop offset="1" stop-color="#5061FF"/>
</linearGradient>
<linearGradient id="paint1_linear_5729_872" x1="25.6619" y1="16.9416" x2="42.9893" y2="45.3709" gradientUnits="userSpaceOnUse">
<stop stop-color="#4CB8F0"/>
<stop offset="1" stop-color="#4CDFF0"/>
</linearGradient>
<linearGradient id="paint2_linear_5729_872" x1="27.0399" y1="35.775" x2="16.4068" y2="25.1383" gradientUnits="userSpaceOnUse">
<stop stop-color="#3A0DA3"/>
<stop offset="1" stop-color="#3A0DD2"/>
</linearGradient>
</defs>
</svg>
