<svg xmlns="http://www.w3.org/2000/svg" viewBox="0 0 1000.84 221.43" xmlns:v="https://vecta.io/nano"><defs><linearGradient id="A" x1=".15" y1="19.2" x2="105.2" y2="191.47" gradientUnits="userSpaceOnUse"><stop offset="0" stop-color="#5086ff"/><stop offset="1" stop-color="#5061ff"/></linearGradient><linearGradient id="B" x1="155.45" y1="29.96" x2="260.5" y2="202.23" gradientUnits="userSpaceOnUse"><stop offset="0" stop-color="#4cb8f0"/><stop offset="1" stop-color="#4cdff0"/></linearGradient><linearGradient id="C" x1="163.82" y1="144.11" x2="99.37" y2="79.66" gradientUnits="userSpaceOnUse"><stop offset="0" stop-color="#3a0da3"/><stop offset="1" stop-color="#3a0dd2"/></linearGradient></defs><path d="M379.58 216.57V16.5h45.74l59.89 129.19L544.19 16.5h45.75v200.07h-38.52V81.66l-51.47 109.47h-30.39L418.1 81.66v134.91h-38.52zm285.9 3.43c-8.84 0-17.06-1.72-24.68-5.14-7.62-3.43-13.79-8.34-18.51-14.72-4.71-6.38-7.07-13.96-7.07-22.72 0-10.48 2.71-19.05 8.13-25.73 5.41-6.66 12.89-11.62 22.42-14.86s20.21-4.86 32.05-4.86h35.51c0-6.47-1.06-11.91-3.16-16.29-2.11-4.38-5.22-7.76-9.34-10.15-4.11-2.38-9.18-3.57-15.19-3.57-7.03 0-13.3 1.48-18.81 4.43-5.52 2.95-8.88 7.86-10.08 14.72h-38.53c1-10.28 4.71-19.15 11.14-26.58 6.42-7.43 14.65-13.15 24.68-17.14 10.03-4 20.77-6.01 32.21-6.01 14.04 0 25.93 2.48 35.66 7.43 9.73 4.96 17.2 11.96 22.42 21.01s7.82 19.77 7.82 32.15v43.16c.4 4.19 2 7.05 4.81 8.58s6.52 2.28 11.14 2.28v30.58c-9.43 0-17.3-.86-23.62-2.57-6.32-1.72-11.49-4.24-15.5-7.58-4.02-3.33-7.43-7.58-10.24-12.72-4.62 7.43-11.78 13.67-21.51 18.72-9.74 5.05-20.31 7.58-31.75 7.58zm11.14-29.44c6.61 0 12.68-1.43 18.21-4.29 5.52-2.86 9.98-6.86 13.39-12 3.41-5.15 5.11-11.05 5.11-17.72v-1.15h-33.11c-4.41 0-8.63.62-12.64 1.86s-7.22 3.14-9.63 5.71-3.61 6.05-3.61 10.43c0 5.91 2.15 10.24 6.46 13 4.32 2.76 9.58 4.15 15.81 4.15zm110.14 26.01V74.8h38.22v16.58c5.22-6.66 12.19-11.67 20.92-15 8.72-3.33 17.5-5.01 26.33-5.01 17.25 0 31.4 5.29 42.43 15.87 11.03 10.57 16.56 25.86 16.56 45.87v83.46H893v-78.6c0-10.66-2.86-19.29-8.58-25.86s-14.1-9.86-25.13-9.86-19.52 3.29-25.43 9.86c-5.92 6.57-8.88 15.2-8.88 25.86v78.6h-38.22zm189.9-157.46c-6.6 0-12.28-2.31-17.04-6.93s-7.13-10.14-7.13-16.55 2.38-12.17 7.13-16.69c4.76-4.53 10.44-6.79 17.04-6.79s12.53 2.26 17.19 6.79c4.66 4.52 7 10.09 7 16.69s-2.34 11.92-7 16.55c-4.66 4.62-10.39 6.93-17.19 6.93zM957.41 74.8h38.52v141.77h-38.52z" fill="#230f60"/><path d="M96.99,90.85l33.34-29.28L72.74,10.98C44.42-13.89,0,6.22,0,43.9v133.62c0,37.69,44.42,57.79,72.74,32.92l57.59-50.59-33.34-29.28c-11.99-10.53-11.99-29.2,0-39.72Z" fill="url(#A)"/><path d="M187.92,10.98l-57.59,50.59,35.11,30.84c11.05,9.71,11.05,26.91,0,36.62l-35.11,30.84,57.59,50.59c28.31,24.87,72.74,4.77,72.74-32.92V43.9c0-37.69-44.42-57.79-72.74-32.92Z" fill="url(#B)"/><path d="M165.43,92.41l-35.11-30.84-33.34,29.28c-11.99,10.53-11.99,29.2,0,39.72l33.34,29.28,35.11-30.84c11.05-9.71,11.05-26.91,0-36.62Z" fill="url(#C)"/></svg>