<svg width="18" height="21" viewBox="0 0 18 21" fill="none" xmlns="http://www.w3.org/2000/svg">
<g id="Group">
<g id="Group_2">
<path id="Path" d="M11.4878 15.5156C11.8675 15.5156 12.1813 15.7978 12.231 16.1639L12.2378 16.2656V16.7779C12.2371 18.5051 10.8847 19.916 9.18159 20.0106L8.99781 20.0156C7.26925 20.0156 5.8582 18.6642 5.76294 16.9614L5.75781 16.7776V16.2656C5.75781 15.8514 6.0936 15.5156 6.50781 15.5156C6.88751 15.5156 7.2013 15.7978 7.25097 16.1639L7.25781 16.2656V16.7776C7.25781 17.687 7.95619 18.4332 8.84585 18.5092L8.99581 18.5156C9.91041 18.516 10.6591 17.8136 10.732 16.9202L10.7378 16.7776V16.2656C10.7378 15.8514 11.0736 15.5156 11.4878 15.5156Z" fill="#26334D"/>
<path id="Path_2" fill-rule="evenodd" clip-rule="evenodd" d="M9.01305 0.515752L9.25181 0.520272C12.8726 0.653722 15.7493 3.63188 15.7493 7.26562V11.0026L16.8942 12.1469C17.3915 12.6453 17.6908 13.3043 17.7411 14.0229L17.7487 14.2402L17.7416 14.421C17.634 15.8799 16.4166 17.0156 14.9462 17.0156H3.05225C1.5042 17.0156 0.249252 15.7607 0.25 14.1791L0.260731 13.9553C0.321335 13.273 0.619512 12.6327 1.10512 12.1461L2.24925 11.0016L2.24938 7.25183L2.2539 7.01306C2.38735 3.39225 5.36551 0.515625 8.99925 0.515625L9.01305 0.515752ZM9.21039 2.01964L8.99925 2.01562C6.17315 2.01562 3.85664 4.25316 3.75326 7.05448L3.74925 7.26562V11.3136C3.74925 11.5126 3.67016 11.7035 3.52939 11.8441L2.16614 13.2064C1.92977 13.4433 1.78439 13.7555 1.75704 14.0552L1.74925 14.2126C1.74925 14.9323 2.33263 15.5156 3.05225 15.5156H14.9462C15.6295 15.5156 16.1957 14.9874 16.2441 14.3383L16.2493 14.2132C16.249 13.8357 16.0991 13.4737 15.8332 13.2072L14.4691 11.8441C14.3283 11.7035 14.2493 11.5126 14.2493 11.3136V7.26562C14.2493 4.43953 12.0117 2.12301 9.21039 2.01964Z" fill="#26334D"/>
</g>
</g>
</svg>
