<svg width="24" height="24" viewBox="0 0 24 24" fill="none" xmlns="http://www.w3.org/2000/svg">
<path d="M9.46967 8.96967C9.73594 8.7034 10.1526 8.6792 10.4462 8.89705L10.5303 8.96967L12.0303 10.4697C12.3232 10.7626 12.3232 11.2374 12.0303 11.5303C11.7641 11.7966 11.3474 11.8208 11.0538 11.6029L10.9697 11.5303L9.46967 10.0303C9.17678 9.73744 9.17678 9.26256 9.46967 8.96967Z" fill="#6B7A99"/>
<path d="M13.4697 7.96967C13.7626 7.67678 14.2374 7.67678 14.5303 7.96967C14.7966 8.23594 14.8208 8.6526 14.6029 8.94621L14.5303 9.03033L12.0303 11.5303C11.7374 11.8232 11.2626 11.8232 10.9697 11.5303C10.7034 11.2641 10.6792 10.8474 10.8971 10.5538L10.9697 10.4697L13.4697 7.96967Z" fill="#6B7A99"/>
<path d="M16 14.25C16.4142 14.25 16.75 14.5858 16.75 15C16.75 15.3797 16.4678 15.6935 16.1018 15.7432L16 15.75H8C7.58579 15.75 7.25 15.4142 7.25 15C7.25 14.6203 7.53215 14.3065 7.89823 14.2568L8 14.25H16Z" fill="#6B7A99"/>
<path fill-rule="evenodd" clip-rule="evenodd" d="M6 2.25H18C19.5192 2.25 20.75 3.48079 20.75 5V19.5C20.75 20.801 19.3809 21.647 18.2166 21.0648L17.4446 20.6788C17.3737 20.6434 17.2913 20.6434 17.2206 20.6787L15.4494 21.5648C14.9563 21.8114 14.3767 21.8114 13.8837 21.5649L12.1096 20.6783C12.0403 20.6436 11.9577 20.6436 11.8873 20.6789L10.1154 21.5643C9.6227 21.8116 9.0413 21.8116 8.54974 21.5649L6.77564 20.6783C6.70614 20.6435 6.62411 20.6435 6.55376 20.6786L5.78281 21.0646C4.6192 21.6473 3.25 20.8008 3.25 19.5V5C3.25 3.48079 4.48079 2.25 6 2.25ZM18 3.75H6C5.30921 3.75 4.75 4.30921 4.75 5V19.5C4.75 19.6857 4.94529 19.8065 5.11124 19.7234L5.88259 19.3372C6.37589 19.0905 6.95586 19.0905 7.44726 19.3371L9.22136 20.2237C9.2907 20.2584 9.3733 20.2584 9.44374 20.2231L11.2156 19.3377C11.7083 19.0904 12.2897 19.0904 12.7813 19.3371L14.5544 20.2232C14.6253 20.2586 14.7077 20.2586 14.7784 20.2233L16.5496 19.3372C17.0427 19.0906 17.6223 19.0906 18.1154 19.3372L18.8874 19.7232C19.0544 19.8067 19.25 19.6858 19.25 19.5V5C19.25 4.30921 18.6908 3.75 18 3.75Z" fill="#6B7A99"/>
</svg>
