<svg width="24" height="24" viewBox="0 0 24 24" fill="none" xmlns="http://www.w3.org/2000/svg">
<path d="M14.552 14.8125C17.4174 14.8125 19.7402 17.1353 19.7402 20.0007C19.7402 20.4101 19.4084 20.7419 18.999 20.7419C18.5897 20.7419 18.2578 20.4101 18.2578 20.0007C18.2578 18.0201 16.704 16.4023 14.7488 16.3L14.552 16.2949H9.44601C7.39937 16.2949 5.74021 17.9541 5.74021 20.0007C5.74021 20.4101 5.40837 20.7419 4.99901 20.7419C4.58966 20.7419 4.25781 20.4101 4.25781 20.0007C4.25781 17.2088 6.46307 14.932 9.2267 14.8171L9.44601 14.8125H14.552Z" fill="#26334D"/>
<path fill-rule="evenodd" clip-rule="evenodd" d="M15.5355 4.71447C13.5829 2.76184 10.4171 2.76184 8.46447 4.71447C6.51184 6.66709 6.51184 9.83291 8.46447 11.7855C10.4171 13.7382 13.5829 13.7382 15.5355 11.7855C17.4882 9.83291 17.4882 6.66709 15.5355 4.71447ZM9.52513 5.77513C10.8431 4.45711 12.9508 4.41003 14.3253 5.63391L14.4749 5.77513L14.6161 5.92475C15.84 7.29917 15.7929 9.40686 14.4749 10.7249C13.108 12.0917 10.892 12.0917 9.52513 10.7249C8.15829 9.35804 8.15829 7.14196 9.52513 5.77513Z" fill="#26334D"/>
</svg>
