<svg width="24" height="24" viewBox="0 0 24 24" fill="none" xmlns="http://www.w3.org/2000/svg">
<path d="M7.46967 16.9697C7.73594 16.7034 8.1526 16.6792 8.44621 16.8971L8.53033 16.9697L10.5303 18.9697C10.7966 19.2359 10.8208 19.6526 10.6029 19.9462L10.5303 20.0303L8.53033 22.0303C8.23744 22.3232 7.76256 22.3232 7.46967 22.0303C7.2034 21.7641 7.1792 21.3474 7.39705 21.0538L7.46967 20.9697L8.939 19.5L7.46967 18.0303C7.2034 17.7641 7.1792 17.3474 7.39705 17.0538L7.46967 16.9697Z" fill="#26334D"/>
<path d="M10 18.75C10.4142 18.75 10.75 19.0858 10.75 19.5C10.75 19.8797 10.4678 20.1935 10.1018 20.2432L10 20.25H4C3.58579 20.25 3.25 19.9142 3.25 19.5C3.25 19.1203 3.53215 18.8065 3.89823 18.7568L4 18.75H10Z" fill="#26334D"/>
<path d="M9.83914 1.99118C15.0897 0.796587 20.3146 4.08464 21.5091 9.33524C22.7037 14.5858 19.4157 19.8107 14.1651 21.0052C13.7612 21.0971 13.3593 20.8442 13.2674 20.4403C13.1755 20.0364 13.4284 19.6345 13.8323 19.5426C18.2751 18.5318 21.0573 14.1108 20.0465 9.66801C19.0357 5.22519 14.6147 2.44299 10.1719 3.4538C5.7291 4.4646 2.9469 8.88563 3.95771 13.3284C4.10251 13.9648 4.32232 14.5818 4.61252 15.1664C4.7967 15.5375 4.64524 15.9875 4.27422 16.1717C3.90321 16.3559 3.45314 16.2044 3.26896 15.8334C2.92599 15.1425 2.66621 14.4133 2.49509 13.6612C1.30049 8.41062 4.58855 3.18576 9.83914 1.99118Z" fill="#26334D"/>
<path d="M11.7852 7.71484C12.1649 7.71484 12.4786 7.997 12.5283 8.36307L12.5352 8.46484V11.5598L14.9397 13.0266C15.2639 13.2243 15.3848 13.6286 15.2366 13.967L15.1894 14.0574C14.9917 14.3816 14.5874 14.5025 14.249 14.3543L14.1586 14.3071L11.3946 12.6211C11.2032 12.5044 11.0758 12.3095 11.0434 12.0915L11.0352 11.9808V8.46484C11.0352 8.05063 11.3709 7.71484 11.7852 7.71484Z" fill="#26334D"/>
</svg>
