<svg width="17" height="20" viewBox="0 0 17 20" fill="none" xmlns="http://www.w3.org/2000/svg">
<g id="Group">
<g id="Group_2">
<path id="Path" d="M4.4017 1.13569C4.69459 0.842792 5.16947 0.842792 5.46236 1.13569C5.72863 1.40195 5.75283 1.81862 5.53498 2.11223L5.46236 2.19635L2.39303 5.26602L5.46236 8.33569C5.72863 8.60195 5.75283 9.01862 5.53498 9.31223L5.46236 9.39635C5.19609 9.66261 4.77943 9.68682 4.48582 9.46896L4.4017 9.39635L0.801701 5.79635C0.535435 5.53008 0.511229 5.11342 0.729083 4.8198L0.801701 4.73569L4.4017 1.13569Z" fill="#26334D"/>
<path id="Path_2" d="M15.332 4.51562C15.7462 4.51562 16.082 4.85141 16.082 5.26562C16.082 5.64532 15.7999 5.95912 15.4338 6.00878L15.332 6.01562H1.33203C0.917818 6.01562 0.582031 5.67984 0.582031 5.26562C0.582031 4.88593 0.864185 4.57213 1.23026 4.52247L1.33203 4.51562H15.332Z" fill="#26334D"/>
<path id="Path_3" d="M11.2001 11.1357C11.4664 10.8694 11.8831 10.8452 12.1767 11.0631L12.2608 11.1357L15.8608 14.7357C16.1271 15.002 16.1513 15.4186 15.9334 15.7122L15.8608 15.7963L12.2608 19.3963C11.9679 19.6892 11.493 19.6892 11.2001 19.3963C10.9339 19.1301 10.9097 18.7134 11.1275 18.4198L11.2001 18.3357L14.2695 15.266L11.2001 12.1963C10.9339 11.9301 10.9097 11.5134 11.1275 11.2198L11.2001 11.1357Z" fill="#26334D"/>
<path id="Path_4" d="M15.332 14.5156C15.7462 14.5156 16.082 14.8514 16.082 15.2656C16.082 15.6453 15.7999 15.9591 15.4338 16.0088L15.332 16.0156H1.33203C0.917818 16.0156 0.582031 15.6798 0.582031 15.2656C0.582031 14.8859 0.864185 14.5721 1.23026 14.5225L1.33203 14.5156H15.332Z" fill="#26334D"/>
</g>
</g>
</svg>
