<svg width="15" height="16" viewBox="0 0 15 16" fill="none" xmlns="http://www.w3.org/2000/svg">
<path d="M0 8.26758C0 5.93787 0 4.77302 0.380602 3.85416C0.888072 2.62902 1.86144 1.65565 3.08658 1.14818C4.00544 0.767578 5.17029 0.767578 7.5 0.767578C9.82971 0.767578 10.9946 0.767578 11.9134 1.14818C13.1386 1.65565 14.1119 2.62902 14.6194 3.85416C15 4.77302 15 5.93787 15 8.26758C15 10.5973 15 11.7621 14.6194 12.681C14.1119 13.9061 13.1386 14.8795 11.9134 15.387C10.9946 15.7676 9.82971 15.7676 7.5 15.7676C5.17029 15.7676 4.00544 15.7676 3.08658 15.387C1.86144 14.8795 0.888072 13.9061 0.380602 12.681C0 11.7621 0 10.5973 0 8.26758Z" fill="url(#paint0_linear_1652_23548)"/>
<path d="M0 8.26758C0 5.93787 0 4.77302 0.380602 3.85416C0.888072 2.62902 1.86144 1.65565 3.08658 1.14818C4.00544 0.767578 5.17029 0.767578 7.5 0.767578C9.82971 0.767578 10.9946 0.767578 11.9134 1.14818C13.1386 1.65565 14.1119 2.62902 14.6194 3.85416C15 4.77302 15 5.93787 15 8.26758C15 10.5973 15 11.7621 14.6194 12.681C14.1119 13.9061 13.1386 14.8795 11.9134 15.387C10.9946 15.7676 9.82971 15.7676 7.5 15.7676C5.17029 15.7676 4.00544 15.7676 3.08658 15.387C1.86144 14.8795 0.888072 13.9061 0.380602 12.681C0 11.7621 0 10.5973 0 8.26758Z" fill="url(#paint1_linear_1652_23548)"/>
<path d="M9.1276 14.0911H5.8776C2.93635 14.0911 1.67969 12.8345 1.67969 9.89323V6.64323C1.67969 3.70198 2.93635 2.44531 5.8776 2.44531H9.1276C12.0689 2.44531 13.3255 3.70198 13.3255 6.64323V9.89323C13.3255 12.8345 12.0689 14.0911 9.1276 14.0911ZM5.8776 3.25781C3.38052 3.25781 2.49219 4.14615 2.49219 6.64323V9.89323C2.49219 12.3903 3.38052 13.2786 5.8776 13.2786H9.1276C11.6247 13.2786 12.513 12.3903 12.513 9.89323V6.64323C12.513 4.14615 11.6247 3.25781 9.1276 3.25781H5.8776Z" fill="white"/>
<path fill-rule="evenodd" clip-rule="evenodd" d="M2.46296 10.2676H3.99383C5.10494 10.2676 6 9.36912 6 8.26758C6 7.16604 5.09876 6.26758 3.99383 6.26758H2.46296C2.20988 6.26758 2 6.47681 2 6.72912C2 6.98142 2.20988 7.19065 2.46296 7.19065H3.99383C4.58642 7.19065 5.07407 7.67681 5.07407 8.26758C5.07407 8.85835 4.59259 9.3445 3.99383 9.3445H2.46296C2.20988 9.3445 2 9.55373 2 9.80604C2 10.0583 2.20988 10.2676 2.46296 10.2676ZM11.3369 7.37305H12.4658C12.7568 7.37305 12.998 7.13177 12.998 6.84082C12.998 6.54987 12.7568 6.30859 12.4658 6.30859H11.3369C11.046 6.30859 10.8047 6.54987 10.8047 6.84082C10.8047 7.13177 11.046 7.37305 11.3369 7.37305ZM12.4658 10.2188H11.3369C11.046 10.2188 10.8047 9.97747 10.8047 9.68652C10.8047 9.39557 11.046 9.1543 11.3369 9.1543H12.4658C12.7568 9.1543 12.998 9.39557 12.998 9.68652C12.998 9.97747 12.7568 10.2188 12.4658 10.2188ZM3.67997 8.92069C3.76513 8.95617 3.85738 8.97747 3.94964 8.97747C4.04189 8.97747 4.13414 8.95617 4.2193 8.92069C4.30446 8.88521 4.38252 8.83556 4.45348 8.77169C4.58831 8.63686 4.65927 8.45944 4.65927 8.26784C4.65927 8.08333 4.58122 7.89881 4.45348 7.76398C4.38961 7.70011 4.31155 7.65047 4.2193 7.61498C3.95674 7.50144 3.64449 7.57238 3.44579 7.76398C3.31806 7.89881 3.24 8.08333 3.24 8.26784C3.24 8.45944 3.31096 8.63686 3.44579 8.77169C3.51675 8.83556 3.59481 8.88521 3.67997 8.92069Z" fill="white"/>
<defs>
<linearGradient id="paint0_linear_1652_23548" x1="0" y1="7.26758" x2="15" y2="7.26758" gradientUnits="userSpaceOnUse">
<stop stop-color="#FF5C4D"/>
<stop offset="0.4" stop-color="#EB469F"/>
<stop offset="1" stop-color="#8341EF"/>
</linearGradient>
<linearGradient id="paint1_linear_1652_23548" x1="0" y1="7.26758" x2="15" y2="7.26758" gradientUnits="userSpaceOnUse">
<stop stop-color="#662AB2"/>
<stop offset="1" stop-color="#9747FF"/>
</linearGradient>
</defs>
</svg>
